<?xml version="1.0" encoding="UTF-8"?> <svg xmlns="http://www.w3.org/2000/svg" width="40" height="40" viewBox="0 0 40 40" fill="none"> <g clip-path="url(#clip0)"> <path d="M39.1121 6.74565L20.4521 0.0789783C20.1574 -0.025024 19.8361 -0.025024 19.5414 0.0789783L0.886082 6.74565C0.357334 6.93624 0.00488281 7.43793 0.00488281 7.99998C0.00488281 8.56203 0.357334 9.06372 0.886082 9.25431L9.99942 12.5103V16.667C9.99942 19.259 18.9761 19.3336 19.9994 19.3336C21.0227 19.3336 29.9994 19.259 29.9994 16.667V12.5103L31.9994 11.8003V13.3336C31.9994 14.07 32.5964 14.667 33.3327 14.667H34.6661C35.4025 14.667 35.9994 14.07 35.9994 13.3336V11.3336C35.9974 11.0249 35.923 10.721 35.7821 10.4463L39.1154 9.25431C39.6442 9.06372 39.9966 8.56203 39.9966 7.99998C39.9966 7.43793 39.6442 6.93624 39.1154 6.74565H39.1121ZM28.6661 15.2003C26.1267 14.0443 20.7761 14.0003 19.9994 14.0003C19.2227 14.0003 13.8721 14.0443 11.3327 15.2003V9.39231C11.7327 8.87898 14.8767 8.00031 19.9994 8.00031C25.1221 8.00031 28.2661 8.87898 28.6661 9.39231V15.2003ZM19.9994 18.0003C15.0661 18.0003 11.9681 17.1856 11.3887 16.667C11.9681 16.1483 15.0674 15.3336 19.9994 15.3336C24.9314 15.3336 28.0307 16.1483 28.6101 16.667C28.0307 17.1856 24.9327 18.0003 19.9994 18.0003V18.0003ZM32.3121 10.2703L29.9994 11.095V9.33364C29.9994 6.74164 21.0227 6.66698 19.9994 6.66698C18.9761 6.66698 9.99942 6.74164 9.99942 9.33364V11.0943L1.33275 8.00031L20.0087 1.33364L33.3327 6.09498V9.45631C32.9112 9.60611 32.5519 9.89266 32.3121 10.2703ZM34.6661 13.3336H33.3327V11.3336C33.3327 10.9655 33.6312 10.667 33.9994 10.667C34.3676 10.667 34.6661 10.9655 34.6661 11.3336V13.3336ZM34.6661 9.42965V6.57165L38.6661 8.00031L34.6661 9.42965Z" fill="#F58220"></path> <path d="M38 20.667C37.96 20.6669 37.92 20.6704 37.8807 20.6777C31.9656 21.5973 25.986 22.0396 20 22.0003C14.014 22.0396 8.03445 21.5973 2.11933 20.6777C2.0799 20.6709 2.04 20.6674 2 20.667C1.53333 20.667 0 21.1957 0 28.0003C0 34.805 1.53333 35.3337 2 35.3337C2.04003 35.3328 2.07993 35.3288 2.11933 35.3217C6.66447 34.6017 11.2523 34.1835 15.8527 34.0697L14.5513 37.191C14.3514 37.6908 14.473 38.2618 14.8591 38.6369C15.2452 39.0119 15.8196 39.1168 16.3133 38.9023L16.8233 38.6843L17.044 39.1917C17.2524 39.6836 17.7357 40.0024 18.27 40.0003H18.2867C18.8249 39.9961 19.3075 39.6676 19.5087 39.1683L20.6667 36.3963L21.8207 39.1577C22.0201 39.6616 22.5047 39.9947 23.0467 40.0003H23.0667C23.5973 40.0025 24.078 39.6877 24.288 39.2003L24.5107 38.689L25.0127 38.9043C25.5086 39.1232 26.0877 39.019 26.4761 38.6408C26.8645 38.2627 26.9842 37.6866 26.7787 37.185L25.5027 34.125C29.6504 34.2719 33.7853 34.6726 37.884 35.325C37.9223 35.3313 37.9612 35.3342 38 35.3337C38.4667 35.3337 40 34.805 40 28.0003C40 21.1957 38.4667 20.667 38 20.667V20.667ZM22.1333 23.3137C22.4102 24.3316 22.5714 25.3776 22.614 26.4317C21.1024 25.7288 19.3295 25.8936 17.9733 26.863C17.9392 25.6658 17.7858 24.475 17.5153 23.3083C18.3229 23.3252 19.1511 23.3337 20 23.3337C20.7287 23.3337 21.436 23.3257 22.1333 23.3137V23.3137ZM20.6667 34.0003C18.8257 34.0003 17.3333 32.5079 17.3333 30.667C17.3333 28.826 18.8257 27.3337 20.6667 27.3337C22.5076 27.3337 24 28.826 24 30.667C23.9978 32.507 22.5067 33.9981 20.6667 34.0003V34.0003ZM2 22.3337C2.51081 24.1773 2.73565 26.0885 2.66667 28.0003C2.73565 29.9122 2.51081 31.8233 2 33.667C1.48919 31.8233 1.26435 29.9122 1.33333 28.0003C1.26435 26.0885 1.48919 24.1773 2 22.3337ZM3.34667 33.7803C3.71133 32.723 4 30.9537 4 28.0003C4 25.047 3.71133 23.2777 3.346 22.219C7.58239 22.8041 11.8477 23.1564 16.1227 23.2743C16.5225 24.8168 16.7056 26.4074 16.6667 28.0003C16.6667 28.097 16.6667 28.189 16.6627 28.2817C15.8626 29.6094 15.782 31.2499 16.448 32.6497L16.4187 32.7203C12.0448 32.8275 7.68052 33.1819 3.34667 33.7817V33.7803ZM18.2713 38.667L17.7847 37.547C17.6383 37.2107 17.2478 37.0558 16.9107 37.2003L15.7887 37.6963L17.352 33.9483C17.9938 34.5987 18.8126 35.0461 19.7067 35.235L18.2713 38.667ZM24.4227 37.2003C24.0856 37.0558 23.695 37.2107 23.5487 37.547L23.0553 38.6557L21.626 35.2337C22.5207 35.0447 23.3402 34.5971 23.9827 33.9463L25.5427 37.6797L24.4227 37.2003ZM37.8667 33.967C33.5835 33.3078 29.2646 32.9071 24.9333 32.767L24.886 32.6523C25.7244 30.8856 25.365 28.7829 23.9873 27.395C23.9822 26.0124 23.8225 24.6348 23.5113 23.2877C28.3185 23.18 33.1137 22.7609 37.8667 22.033C38.176 22.5583 38.6667 24.6363 38.6667 28.0003C38.6667 31.3643 38.1727 33.4417 37.8667 33.967V33.967Z" fill="#F58220"></path> </g> <defs> <clipPath id="clip0"> <rect width="40" height="40" fill="white"></rect> </clipPath> </defs> </svg> 