<?xml version="1.0" encoding="UTF-8"?> <svg xmlns="http://www.w3.org/2000/svg" width="512" height="512" viewBox="0 0 512 512" fill="none"> <g clip-path="url(#clip0)"> <path d="M494.535 100H17.4648C7.83594 100 0 107.836 0 117.465V393.918C0 403.547 7.83594 411.379 17.4648 411.379H494.535C504.164 411.379 512 403.547 512 393.918V117.465C512 107.836 504.164 100 494.535 100V100ZM30.0312 143.027L173.539 238.41L30.0312 363.332V143.027ZM256 257.156L64.7344 130.031H447.266L256 257.156ZM199.477 255.645L246.332 286.789C249.27 288.742 252.633 289.719 256 289.719C259.363 289.719 262.73 288.738 265.668 286.789L312.523 255.645L456.926 381.348H55.0742L199.477 255.645ZM338.461 238.406L481.969 143.023V363.332L338.461 238.406Z" fill="#F58220"></path> </g> <defs> <clipPath id="clip0"> <rect width="512" height="512" fill="white"></rect> </clipPath> </defs> </svg> 