<?xml version="1.0" encoding="UTF-8"?> <svg xmlns="http://www.w3.org/2000/svg" width="42" height="42" viewBox="0 0 42 42" fill="none"> <path d="M21 29.2031C21 29.6562 20.6328 30.0234 20.1797 30.0234C19.7266 30.0234 19.3594 29.6562 19.3594 29.2031C19.3594 28.75 19.7266 28.3828 20.1797 28.3828C20.6328 28.3828 21 28.75 21 29.2031Z" fill="#F58220"></path> <path d="M29.2031 11.4844C28.5286 11.4844 27.9009 11.6891 27.3789 12.0397C26.9357 10.7724 25.7248 9.84375 24.2812 9.84375C23.3023 9.84375 22.423 10.2751 21.8213 10.9573C21.1865 10.2382 20.3011 9.84375 19.3594 9.84375C18.3801 9.84375 17.5002 10.2757 16.8984 10.9582C16.2967 10.2757 15.4167 9.84375 14.4375 9.84375C12.6283 9.84375 11.1562 11.3158 11.1562 13.125V17.7204C10.1344 18.4894 9.51562 19.7054 9.51562 21C9.51562 25.3714 11.5744 29.5159 15.0938 32.1562C15.7029 32.6132 16.0781 33.3367 16.0781 34.125V41.1797C16.0781 41.6328 16.4453 42 16.8984 42H30.0234C30.4765 42 30.8438 41.6328 30.8438 41.1797V34.257C31.3776 32.6331 31.7868 30.9549 32.0611 29.2669C32.3421 27.5343 32.4844 25.7671 32.4844 24.0146C32.4844 22.9537 32.4844 15.8324 32.4844 14.7656C32.4844 12.9529 31.0161 11.4844 29.2031 11.4844V11.4844ZM29.2031 13.125C30.1093 13.125 30.8438 13.8594 30.8438 14.7656V20.1797C30.8438 21.0843 30.1077 21.8203 29.2031 21.8203C28.2985 21.8203 27.5625 21.0843 27.5625 20.1797C27.5625 18.7855 27.5625 16.0429 27.5625 14.7656C27.5625 13.861 28.2985 13.125 29.2031 13.125ZM24.2812 11.4844C25.1874 11.4844 25.9219 12.2188 25.9219 13.125V18.5391C25.9219 19.4436 25.1858 20.1797 24.2812 20.1797C23.3767 20.1797 22.6406 19.4436 22.6406 18.5391V13.125C22.6406 12.2204 23.3767 11.4844 24.2812 11.4844ZM19.3594 11.4844C20.2656 11.4844 21 12.2188 21 13.125V16.8984H17.7188V13.125C17.7188 12.2204 18.4548 11.4844 19.3594 11.4844ZM14.4375 11.4844C15.3421 11.4844 16.0781 12.2204 16.0781 13.125V16.8984H13.6172C13.3407 16.8984 13.066 16.927 12.7969 16.9818V13.125C12.7969 12.2204 13.5329 11.4844 14.4375 11.4844ZM17.7188 40.3594V36.5859H29.2031V40.3594H17.7188ZM30.4419 29.0041C29.9132 32.2562 29.2031 33.7315 29.2031 34.125V34.9453H17.7188V34.125C17.7188 32.8542 17.1266 31.6301 16.0781 30.8438C12.968 28.5103 11.1562 24.8513 11.1562 21C11.1562 19.6667 12.2352 18.5381 13.6172 18.5381H20.9176C20.5367 20.4082 18.879 21.8203 16.8984 21.8203H15.2578C14.8047 21.8203 14.4375 22.1875 14.4375 22.6406C14.4375 23.0937 14.8047 23.4609 15.2578 23.4609H16.0781C17.639 23.4609 18.9925 24.57 19.2962 26.0975C19.384 26.5387 19.8134 26.8309 20.2611 26.7419C20.7052 26.6537 20.9939 26.2218 20.9055 25.7774C20.6802 24.6446 20.0701 23.6657 19.2286 22.9649C20.3018 22.4862 21.2032 21.6893 21.8088 20.6927C22.4109 21.3829 23.2956 21.8203 24.2812 21.8203C24.9564 21.8203 25.5845 21.6152 26.1068 21.264C26.5557 22.5419 27.7737 23.4609 29.2031 23.4609C29.8004 23.4609 30.3609 23.2998 30.8438 23.0194V24.0146C30.8438 25.6793 30.7085 27.3584 30.4419 29.0041Z" fill="#F58220"></path> <path d="M22.6406 5.74219V0.820312C22.6406 0.367218 22.2734 0 21.8203 0C21.3672 0 21 0.367218 21 0.820312V5.74219C21 6.19528 21.3672 6.5625 21.8203 6.5625C22.2734 6.5625 22.6406 6.19528 22.6406 5.74219Z" fill="#F58220"></path> <path d="M28.163 6.78596L31.643 3.30508C31.9631 2.98465 31.9631 2.46555 31.6426 2.14511C31.3222 1.82468 30.8031 1.82468 30.4827 2.14511L27.0027 5.62567C26.6826 5.94611 26.6826 6.46553 27.0031 6.78596C27.3235 7.10608 27.8426 7.1064 28.163 6.78596V6.78596Z" fill="#F58220"></path> <path d="M17.1242 6.30474C17.4447 5.98431 17.4443 5.46488 17.1242 5.14477L13.6433 1.66485C13.3232 1.34474 12.8038 1.34474 12.4834 1.66517C12.1629 1.98528 12.1633 2.50471 12.4834 2.82514L15.9639 6.30506C16.2844 6.62518 16.8038 6.62518 17.1242 6.30474Z" fill="#F58220"></path> </svg> 