<?xml version="1.0" encoding="UTF-8"?> <svg xmlns="http://www.w3.org/2000/svg" width="512" height="512" viewBox="0 0 512 512" fill="none"> <path d="M247.59 476.16C233.607 476.166 219.865 472.518 207.725 465.579L117.999 416.703C117.204 416.27 116.613 415.539 116.357 414.671C116.1 413.803 116.199 412.868 116.632 412.073C117.065 411.278 117.796 410.687 118.664 410.43C119.532 410.174 120.467 410.273 121.262 410.706L211.053 459.602C219.859 464.645 229.614 467.81 239.704 468.898C249.793 469.985 259.999 468.971 269.677 465.92L454.537 370.487C454.677 370.414 454.824 370.351 454.974 370.299C460.888 368.187 465.748 363.855 468.524 358.222C471.3 352.588 471.774 346.095 469.845 340.118C468.752 336.838 467.009 333.812 464.723 331.219C462.436 328.626 459.651 326.519 456.533 325.024C454.12 323.84 451.487 323.167 448.8 323.05C446.114 322.932 443.432 323.372 440.924 324.342C431.555 328.096 421.656 332.496 411.18 337.169C374.46 353.553 332.851 372.121 297.117 368.421C296.661 368.39 296.216 368.267 295.808 368.06C295.4 367.853 295.038 367.567 294.744 367.217C294.449 366.868 294.227 366.463 294.092 366.026C293.957 365.589 293.911 365.13 293.956 364.675C294.002 364.22 294.139 363.779 294.358 363.378C294.578 362.977 294.876 362.624 295.234 362.34C295.593 362.056 296.004 361.847 296.445 361.726C296.886 361.604 297.346 361.572 297.8 361.632C331.721 365.134 372.446 346.955 408.392 330.936C418.932 326.233 428.872 321.792 438.388 318C441.762 316.683 445.371 316.078 448.989 316.223C452.608 316.368 456.157 317.26 459.414 318.843C463.371 320.739 466.906 323.411 469.809 326.7C472.712 329.99 474.924 333.83 476.314 337.992C478.775 345.626 478.185 353.918 474.668 361.127C471.15 368.336 464.977 373.903 457.445 376.661L272.551 472.108C272.385 472.196 272.212 472.27 272.032 472.327C264.133 474.865 255.887 476.158 247.59 476.16Z" fill="#F58220"></path> <path d="M290.86 369.36H290.546L223.433 368.616C222.528 368.611 221.662 368.247 221.025 367.603C220.389 366.959 220.034 366.089 220.039 365.184C220.044 364.279 220.408 363.412 221.052 362.776C221.695 362.139 222.566 361.784 223.471 361.789H223.512L290.621 362.533C293.311 362.548 295.977 362.034 298.467 361.018C300.958 360.003 303.224 358.507 305.136 356.616C307.049 354.725 308.57 352.475 309.613 349.996C310.656 347.517 311.201 344.857 311.216 342.168C311.231 339.478 310.716 336.812 309.701 334.322C308.685 331.831 307.189 329.565 305.298 327.653C303.407 325.74 301.158 324.219 298.679 323.176C296.2 322.133 293.54 321.588 290.85 321.573H217.194C216.389 321.573 215.611 321.289 214.996 320.77C214.381 320.252 213.968 319.533 213.832 318.74C208.835 289.655 178.135 277.992 119.965 283.081C119.514 283.129 119.058 283.087 118.624 282.956C118.189 282.826 117.785 282.611 117.435 282.322C117.085 282.034 116.796 281.679 116.585 281.278C116.373 280.877 116.244 280.437 116.205 279.986C116.165 279.534 116.216 279.079 116.354 278.647C116.492 278.215 116.715 277.815 117.009 277.47C117.304 277.126 117.664 276.843 118.069 276.639C118.474 276.435 118.915 276.313 119.368 276.282C179.944 270.974 212.893 283.566 219.989 314.747H290.85C298.092 314.747 305.038 317.624 310.159 322.745C315.28 327.866 318.157 334.811 318.157 342.053C318.157 349.296 315.28 356.241 310.159 361.362C305.038 366.483 298.092 369.36 290.85 369.36H290.86Z" fill="#F58220"></path> <path d="M119.63 430.828L37.5466 430.79C36.6414 430.79 35.7732 430.43 35.133 429.79C34.4929 429.15 34.1333 428.282 34.1333 427.377V265.684C34.1333 264.778 34.4929 263.91 35.133 263.27C35.7732 262.63 36.6414 262.27 37.5466 262.27H119.668C120.573 262.27 121.441 262.63 122.082 263.27C122.722 263.91 123.081 264.778 123.081 265.684L123.044 427.414C123.044 428.319 122.684 429.188 122.044 429.828C121.404 430.468 120.536 430.828 119.63 430.828ZM40.96 423.967L116.203 424.001L116.241 269.097H40.96V423.967Z" fill="#F58220"></path> <path d="M81.6128 308.705C78.8711 308.705 76.1909 307.892 73.9114 306.369C71.6318 304.846 69.8551 302.681 68.806 300.148C67.757 297.614 67.4827 294.827 68.0178 292.138C68.553 289.449 69.8735 286.979 71.8124 285.041C73.7513 283.102 76.2215 281.783 78.9106 281.248C81.5997 280.714 84.3869 280.989 86.9197 282.038C89.4525 283.088 91.6172 284.865 93.1399 287.145C94.6626 289.425 95.475 292.105 95.4743 294.847C95.4698 298.522 94.0078 302.045 91.4092 304.643C88.8105 307.241 85.2874 308.702 81.6128 308.705ZM81.6128 287.812C80.2214 287.812 78.8613 288.225 77.7044 288.998C76.5475 289.771 75.6458 290.87 75.1134 292.155C74.5809 293.44 74.4416 294.855 74.7131 296.22C74.9845 297.584 75.6545 298.838 76.6384 299.822C77.6222 300.805 78.8757 301.475 80.2403 301.747C81.605 302.018 83.0195 301.879 84.3049 301.347C85.5904 300.814 86.6891 299.912 87.4621 298.756C88.2351 297.599 88.6477 296.238 88.6477 294.847C88.6468 292.982 87.9053 291.193 86.5862 289.874C85.2671 288.555 83.4783 287.813 81.6128 287.812Z" fill="#F58220"></path> <path d="M279.91 448.676C279.146 448.676 278.403 448.419 277.801 447.947C277.2 447.474 276.775 446.814 276.594 446.07C276.413 445.327 276.486 444.545 276.803 443.849C277.12 443.153 277.661 442.583 278.34 442.231L344.9 407.866C345.299 407.66 345.734 407.535 346.181 407.497C346.628 407.46 347.078 407.511 347.505 407.647C347.932 407.783 348.328 408.002 348.671 408.292C349.014 408.581 349.296 408.935 349.501 409.334C349.707 409.732 349.832 410.167 349.87 410.614C349.908 411.061 349.857 411.511 349.721 411.938C349.584 412.366 349.365 412.762 349.076 413.104C348.786 413.447 348.432 413.729 348.034 413.935L281.474 448.297C280.991 448.547 280.454 448.677 279.91 448.676Z" fill="#F58220"></path> <path d="M372.924 400.657C372.158 400.659 371.413 400.403 370.811 399.93C370.208 399.457 369.781 398.796 369.6 398.051C369.419 397.307 369.493 396.523 369.811 395.827C370.129 395.13 370.673 394.56 371.354 394.209L404.634 377.03C405.438 376.614 406.374 376.535 407.237 376.81C408.099 377.085 408.817 377.692 409.233 378.496C409.649 379.3 409.727 380.237 409.453 381.099C409.178 381.962 408.571 382.68 407.767 383.095L374.487 400.278C374.003 400.526 373.467 400.656 372.924 400.657Z" fill="#F58220"></path> <path d="M54.6133 375.808C53.708 375.808 52.8398 375.448 52.1997 374.808C51.5596 374.168 51.2 373.3 51.2 372.395V326.881C51.2 325.976 51.5596 325.108 52.1997 324.468C52.8398 323.828 53.708 323.468 54.6133 323.468C55.5186 323.468 56.3868 323.828 57.0269 324.468C57.667 325.108 58.0266 325.976 58.0266 326.881V372.395C58.0266 373.3 57.667 374.168 57.0269 374.808C56.3868 375.448 55.5186 375.808 54.6133 375.808Z" fill="#F58220"></path> <path d="M54.6133 413.73C53.708 413.73 52.8398 413.371 52.1997 412.73C51.5596 412.09 51.2 411.222 51.2 410.317V388.891C51.2 387.986 51.5596 387.118 52.1997 386.478C52.8398 385.838 53.708 385.478 54.6133 385.478C55.5186 385.478 56.3868 385.838 57.0269 386.478C57.667 387.118 58.0266 387.986 58.0266 388.891V410.317C58.0266 411.222 57.667 412.09 57.0269 412.73C56.3868 413.371 55.5186 413.73 54.6133 413.73Z" fill="#F58220"></path> <path d="M247.033 275.115H211.603C210.698 275.115 209.829 274.755 209.189 274.115C208.549 273.475 208.189 272.607 208.189 271.701V146.217C208.189 145.312 208.549 144.444 209.189 143.803C209.829 143.163 210.698 142.804 211.603 142.804H247.033C247.938 142.804 248.807 143.163 249.447 143.803C250.087 144.444 250.447 145.312 250.447 146.217V271.701C250.447 272.607 250.087 273.475 249.447 274.115C248.807 274.755 247.938 275.115 247.033 275.115ZM215.016 268.288H243.62V149.63H215.016V268.288Z" fill="#F58220"></path> <path d="M306.814 275.115H271.391C270.485 275.115 269.617 274.755 268.977 274.115C268.337 273.475 267.977 272.607 267.977 271.701V90.5625C267.977 89.6572 268.337 88.789 268.977 88.1489C269.617 87.5088 270.485 87.1492 271.391 87.1492H306.814C307.719 87.1492 308.588 87.5088 309.228 88.1489C309.868 88.789 310.228 89.6572 310.228 90.5625V271.701C310.228 272.607 309.868 273.475 309.228 274.115C308.588 274.755 307.719 275.115 306.814 275.115ZM274.804 268.288H303.401V93.9758H274.804V268.288Z" fill="#F58220"></path> <path d="M366.592 275.115H331.172C330.267 275.115 329.398 274.755 328.758 274.115C328.118 273.475 327.759 272.607 327.759 271.701V130.481C327.759 129.576 328.118 128.708 328.758 128.068C329.398 127.428 330.267 127.068 331.172 127.068H366.592C367.497 127.068 368.366 127.428 369.006 128.068C369.646 128.708 370.005 129.576 370.005 130.481V271.701C370.005 272.607 369.646 273.475 369.006 274.115C368.366 274.755 367.497 275.115 366.592 275.115ZM334.575 268.288H363.179V133.895H334.575V268.288Z" fill="#F58220"></path> <path d="M426.383 275.115H390.956C390.051 275.115 389.183 274.755 388.543 274.115C387.903 273.475 387.543 272.607 387.543 271.701V118.859C387.543 117.954 387.903 117.086 388.543 116.446C389.183 115.805 390.051 115.446 390.956 115.446H426.383C427.289 115.446 428.157 115.805 428.797 116.446C429.437 117.086 429.797 117.954 429.797 118.859V271.701C429.797 272.607 429.437 273.475 428.797 274.115C428.157 274.755 427.289 275.115 426.383 275.115ZM394.37 268.288H422.97V122.272H394.37V268.288Z" fill="#F58220"></path> <path d="M441.399 275.115H196.608C195.703 275.115 194.834 274.755 194.194 274.115C193.554 273.475 193.195 272.607 193.195 271.701C193.195 270.796 193.554 269.928 194.194 269.288C194.834 268.648 195.703 268.288 196.608 268.288H441.416C442.321 268.288 443.189 268.648 443.829 269.288C444.469 269.928 444.829 270.796 444.829 271.701C444.829 272.607 444.469 273.475 443.829 274.115C443.189 274.755 442.321 275.115 441.416 275.115H441.399Z" fill="#F58220"></path> <path d="M342.525 93.887C341.786 93.8888 341.067 93.6491 340.477 93.2044L296.165 60.1633C295.44 59.6201 294.962 58.8115 294.834 57.9154C294.706 57.0192 294.939 56.1089 295.482 55.3846C296.025 54.6604 296.834 54.1816 297.73 54.0536C298.626 53.9256 299.536 54.1588 300.261 54.702L344.569 87.7226C345.142 88.1524 345.566 88.7517 345.779 89.4355C345.993 90.1193 345.986 90.853 345.759 91.5326C345.533 92.2122 345.098 92.8034 344.517 93.2223C343.936 93.6412 343.238 93.8666 342.521 93.8666L342.525 93.887Z" fill="#F58220"></path> <path d="M362.295 98.1027C361.471 98.1039 360.676 97.8076 360.054 97.2684C359.432 96.7292 359.026 95.9835 358.91 95.1685C358.794 94.3535 358.977 93.5242 359.425 92.8334C359.872 92.1426 360.555 91.6368 361.346 91.4092L395.605 81.5105C396.039 81.3754 396.495 81.3282 396.947 81.3716C397.399 81.4151 397.838 81.5483 398.238 81.7636C398.638 81.9789 398.991 82.2718 399.277 82.6252C399.562 82.9787 399.774 83.3855 399.9 83.8219C400.026 84.2583 400.064 84.7154 400.011 85.1666C399.958 85.6177 399.816 86.0537 399.592 86.4492C399.369 86.8446 399.068 87.1914 398.709 87.4693C398.35 87.7472 397.939 87.9506 397.5 88.0675L363.243 97.9662C362.935 98.0564 362.616 98.1024 362.295 98.1027Z" fill="#F58220"></path> <path d="M238.251 94.0373C237.541 94.0379 236.848 93.8171 236.27 93.4056C235.691 92.9942 235.255 92.4126 235.023 91.7418C234.79 91.071 234.773 90.3444 234.973 89.6632C235.173 88.982 235.58 88.38 236.138 87.9411L278.088 54.9547C278.801 54.4131 279.698 54.1734 280.586 54.2872C281.474 54.401 282.282 54.8593 282.835 55.5631C283.389 56.267 283.644 57.1601 283.545 58.05C283.446 58.9399 283.001 59.7553 282.307 60.3204L240.35 93.3069C239.751 93.7778 239.012 94.0349 238.251 94.0373Z" fill="#F58220"></path> <path d="M407.436 96.2799C404.512 96.2799 401.654 95.4128 399.223 93.7883C396.791 92.1637 394.897 89.8547 393.778 87.1533C392.659 84.4518 392.366 81.4792 392.937 78.6115C393.508 75.7437 394.916 73.1096 396.984 71.0423C399.052 68.975 401.686 67.5673 404.554 66.9973C407.422 66.4272 410.394 66.7205 413.096 67.8399C415.797 68.9593 418.105 70.8547 419.729 73.2862C421.353 75.7177 422.22 78.5762 422.219 81.5002C422.214 85.4189 420.654 89.1756 417.883 91.9463C415.112 94.7169 411.355 96.2754 407.436 96.2799ZM407.436 73.5437C405.862 73.5437 404.324 74.0103 403.016 74.8846C401.707 75.7589 400.687 77.0015 400.085 78.4554C399.483 79.9092 399.325 81.509 399.632 83.0524C399.939 84.5958 400.697 86.0135 401.81 87.1263C402.923 88.239 404.34 88.9968 405.884 89.3038C407.427 89.6108 409.027 89.4532 410.481 88.851C411.935 88.2488 413.177 87.229 414.052 85.9206C414.926 84.6121 415.392 83.0738 415.392 81.5002C415.39 79.3908 414.551 77.3686 413.059 75.8771C411.568 74.3856 409.545 73.5464 407.436 73.5437Z" fill="#F58220"></path> <path d="M289.109 65.4201C286.185 65.4201 283.327 64.553 280.896 62.9286C278.465 61.3043 276.57 58.9954 275.451 56.2942C274.333 53.5929 274.04 50.6205 274.61 47.7529C275.181 44.8852 276.589 42.2511 278.656 40.1836C280.724 38.1162 283.358 36.7082 286.225 36.1378C289.093 35.5674 292.065 35.8602 294.767 36.9791C297.468 38.098 299.777 39.9928 301.401 42.4238C303.025 44.8549 303.892 47.7131 303.892 50.6369C303.888 54.5563 302.329 58.3138 299.558 61.0852C296.786 63.8566 293.029 65.4155 289.109 65.4201ZM289.109 42.6838C287.536 42.6838 285.997 43.1506 284.689 44.025C283.38 44.8994 282.36 46.1422 281.758 47.5963C281.156 49.0504 280.999 50.6503 281.306 52.1938C281.613 53.7373 282.371 55.155 283.484 56.2676C284.598 57.3802 286.016 58.1377 287.559 58.4443C289.103 58.751 290.703 58.5929 292.157 57.9902C293.61 57.3874 294.853 56.3671 295.727 55.0582C296.6 53.7493 297.066 52.2107 297.066 50.6369C297.064 48.5276 296.225 46.5052 294.733 45.014C293.241 43.5228 291.219 42.6848 289.109 42.6838Z" fill="#F58220"></path> <path d="M229.325 112.408C226.401 112.408 223.543 111.541 221.111 109.916C218.68 108.292 216.786 105.983 215.667 103.281C214.548 100.58 214.255 97.6071 214.826 94.7394C215.397 91.8717 216.805 89.2376 218.873 87.1702C220.941 85.1029 223.575 83.6952 226.443 83.1252C229.311 82.5552 232.283 82.8484 234.985 83.9678C237.686 85.0873 239.994 86.9826 241.618 89.4141C243.242 91.8456 244.109 94.7041 244.108 97.6281C244.104 101.547 242.544 105.304 239.773 108.075C237.001 110.846 233.244 112.404 229.325 112.408ZM229.325 89.6716C227.751 89.6716 226.212 90.1385 224.904 91.013C223.595 91.8876 222.575 93.1306 221.973 94.5849C221.371 96.0391 221.214 97.6393 221.522 99.1829C221.829 100.726 222.588 102.144 223.701 103.257C224.815 104.369 226.233 105.126 227.777 105.433C229.321 105.739 230.921 105.58 232.374 104.977C233.828 104.374 235.07 103.353 235.944 102.044C236.817 100.734 237.283 99.1952 237.281 97.6213C237.278 95.5128 236.438 93.4919 234.947 92.0016C233.455 90.5114 231.433 89.6734 229.325 89.6716Z" fill="#F58220"></path> <path d="M351.351 112.408C348.427 112.409 345.569 111.542 343.137 109.918C340.706 108.294 338.81 105.985 337.691 103.284C336.572 100.582 336.279 97.6095 336.849 94.7415C337.419 91.8735 338.827 89.2391 340.895 87.1714C342.962 85.1038 345.597 83.6957 348.465 83.1254C351.333 82.5551 354.306 82.8482 357.007 83.9675C359.708 85.0868 362.017 86.9822 363.641 89.4138C365.265 91.8454 366.132 94.704 366.131 97.6281C366.127 101.547 364.568 105.303 361.797 108.074C359.027 110.845 355.27 112.403 351.351 112.408ZM351.351 89.6716C349.778 89.671 348.239 90.137 346.93 91.0109C345.621 91.8847 344.601 93.1271 343.998 94.5809C343.396 96.0347 343.237 97.6346 343.544 99.1783C343.851 100.722 344.608 102.14 345.721 103.253C346.833 104.366 348.251 105.124 349.795 105.431C351.338 105.739 352.938 105.581 354.392 104.979C355.846 104.377 357.089 103.357 357.963 102.049C358.838 100.74 359.305 99.2019 359.305 97.6281C359.302 95.5194 358.463 93.4977 356.972 92.0062C355.482 90.5148 353.46 89.6753 351.351 89.6716Z" fill="#F58220"></path> <path d="M211.627 162.304C210.872 162.305 210.139 162.057 209.541 161.597C208.942 161.138 208.513 160.493 208.32 159.764C208.127 159.035 208.181 158.262 208.474 157.567C208.766 156.872 209.281 156.293 209.937 155.921L232.26 143.257C233.048 142.811 233.981 142.695 234.853 142.936C235.726 143.177 236.467 143.755 236.914 144.543C237.361 145.33 237.477 146.263 237.236 147.136C236.995 148.009 236.417 148.75 235.629 149.197L213.309 161.86C212.796 162.151 212.216 162.304 211.627 162.304Z" fill="#F58220"></path> <path d="M211.627 184.593C210.873 184.594 210.14 184.345 209.542 183.885C208.944 183.425 208.516 182.78 208.323 182.051C208.131 181.322 208.185 180.55 208.477 179.855C208.77 179.16 209.284 178.582 209.94 178.21L245.371 158.14C245.761 157.906 246.195 157.754 246.645 157.69C247.096 157.627 247.554 157.654 247.994 157.77C248.434 157.887 248.846 158.09 249.206 158.368C249.566 158.646 249.867 158.993 250.091 159.389C250.316 159.784 250.458 160.221 250.511 160.673C250.564 161.125 250.526 161.583 250.4 162.02C250.273 162.457 250.06 162.864 249.774 163.218C249.488 163.571 249.134 163.864 248.733 164.079L213.289 184.149C212.782 184.437 212.209 184.589 211.627 184.593Z" fill="#F58220"></path> <path d="M211.627 206.882C210.873 206.883 210.14 206.634 209.542 206.174C208.944 205.714 208.516 205.07 208.323 204.341C208.131 203.612 208.185 202.839 208.477 202.144C208.77 201.449 209.284 200.871 209.94 200.499L245.371 180.429C245.761 180.195 246.195 180.043 246.645 179.979C247.096 179.916 247.554 179.943 247.994 180.059C248.434 180.176 248.846 180.379 249.206 180.657C249.566 180.935 249.867 181.282 250.091 181.678C250.316 182.074 250.458 182.51 250.511 182.962C250.564 183.414 250.526 183.872 250.4 184.309C250.273 184.746 250.06 185.153 249.774 185.507C249.488 185.86 249.134 186.153 248.733 186.368L213.289 206.438C212.782 206.727 212.21 206.88 211.627 206.882Z" fill="#F58220"></path> <path d="M211.627 229.171C210.873 229.172 210.14 228.923 209.542 228.463C208.944 228.003 208.516 227.359 208.323 226.63C208.131 225.901 208.185 225.128 208.477 224.433C208.77 223.738 209.284 223.16 209.94 222.788L245.371 202.718C245.761 202.485 246.195 202.332 246.645 202.268C247.096 202.205 247.554 202.232 247.994 202.348C248.434 202.465 248.846 202.668 249.206 202.946C249.566 203.224 249.867 203.571 250.091 203.967C250.316 204.363 250.458 204.799 250.511 205.251C250.564 205.703 250.526 206.161 250.4 206.598C250.273 207.035 250.06 207.442 249.774 207.796C249.488 208.149 249.134 208.442 248.733 208.657L213.289 228.727C212.782 229.015 212.209 229.168 211.627 229.171Z" fill="#F58220"></path> <path d="M211.627 251.494C210.873 251.495 210.14 251.246 209.542 250.786C208.944 250.327 208.516 249.682 208.323 248.953C208.131 248.224 208.185 247.452 208.477 246.757C208.77 246.062 209.284 245.483 209.94 245.111L245.371 225.041C245.761 224.808 246.195 224.655 246.645 224.591C247.096 224.528 247.554 224.555 247.994 224.672C248.434 224.788 248.846 224.991 249.206 225.269C249.566 225.547 249.867 225.894 250.091 226.29C250.316 226.686 250.458 227.123 250.511 227.574C250.564 228.026 250.526 228.484 250.4 228.921C250.273 229.358 250.06 229.765 249.774 230.119C249.488 230.473 249.134 230.765 248.733 230.98L213.289 251.051C212.782 251.338 212.209 251.491 211.627 251.494Z" fill="#F58220"></path> <path d="M211.627 273.783C210.873 273.784 210.14 273.535 209.542 273.075C208.944 272.616 208.516 271.971 208.323 271.242C208.131 270.513 208.185 269.741 208.477 269.046C208.77 268.351 209.284 267.772 209.94 267.4L245.371 247.33C245.761 247.097 246.195 246.944 246.645 246.881C247.096 246.817 247.554 246.844 247.994 246.961C248.434 247.077 248.846 247.28 249.206 247.558C249.566 247.836 249.867 248.183 250.091 248.579C250.316 248.975 250.458 249.412 250.511 249.863C250.564 250.315 250.526 250.773 250.4 251.21C250.273 251.647 250.06 252.054 249.774 252.408C249.488 252.762 249.134 253.054 248.733 253.269L213.289 273.34C212.782 273.629 212.21 273.782 211.627 273.783Z" fill="#F58220"></path> <path d="M331.179 151.006C330.423 151.011 329.687 150.765 329.086 150.307C328.485 149.849 328.053 149.204 327.857 148.474C327.662 147.744 327.715 146.97 328.007 146.273C328.299 145.576 328.814 144.996 329.472 144.623L359.646 127.522C360.036 127.301 360.466 127.159 360.91 127.104C361.355 127.048 361.807 127.081 362.239 127.201C362.671 127.32 363.076 127.523 363.429 127.799C363.783 128.075 364.079 128.417 364.3 128.807C364.521 129.197 364.663 129.627 364.718 130.072C364.774 130.517 364.741 130.968 364.621 131.4C364.502 131.833 364.299 132.237 364.023 132.591C363.747 132.944 363.405 133.24 363.015 133.461L332.841 150.562C332.334 150.85 331.762 151.002 331.179 151.006Z" fill="#F58220"></path> <path d="M331.179 173.295C330.425 173.296 329.692 173.047 329.094 172.587C328.497 172.127 328.068 171.482 327.875 170.753C327.683 170.024 327.737 169.252 328.03 168.557C328.322 167.862 328.837 167.284 329.493 166.912L364.923 146.842C365.314 146.608 365.747 146.455 366.197 146.392C366.648 146.329 367.106 146.356 367.546 146.472C367.986 146.589 368.398 146.792 368.758 147.07C369.119 147.347 369.42 147.695 369.644 148.09C369.868 148.486 370.011 148.923 370.063 149.375C370.116 149.827 370.078 150.285 369.952 150.722C369.825 151.159 369.613 151.566 369.326 151.92C369.04 152.273 368.686 152.566 368.285 152.781L332.855 172.851C332.345 173.144 331.767 173.297 331.179 173.295Z" fill="#F58220"></path> <path d="M331.179 195.618C330.423 195.623 329.687 195.378 329.086 194.92C328.485 194.461 328.053 193.817 327.857 193.087C327.662 192.356 327.715 191.582 328.007 190.885C328.299 190.188 328.814 189.608 329.472 189.235L364.902 169.134C365.293 168.902 365.725 168.75 366.175 168.687C366.625 168.624 367.083 168.651 367.522 168.768C367.961 168.884 368.372 169.086 368.732 169.364C369.092 169.641 369.393 169.987 369.617 170.382C369.841 170.777 369.984 171.213 370.038 171.664C370.091 172.115 370.054 172.572 369.929 173.009C369.804 173.445 369.593 173.853 369.308 174.206C369.023 174.56 368.671 174.854 368.271 175.07L332.841 195.171C332.335 195.462 331.762 195.616 331.179 195.618Z" fill="#F58220"></path> <path d="M331.179 217.907C330.423 217.913 329.687 217.667 329.086 217.209C328.485 216.751 328.053 216.106 327.857 215.376C327.662 214.646 327.715 213.871 328.007 213.174C328.299 212.477 328.814 211.897 329.472 211.524L364.902 191.42C365.69 190.973 366.623 190.857 367.496 191.099C368.368 191.34 369.11 191.917 369.556 192.705C370.003 193.493 370.119 194.425 369.878 195.298C369.637 196.171 369.059 196.912 368.271 197.359L332.841 217.464C332.334 217.751 331.762 217.904 331.179 217.907Z" fill="#F58220"></path> <path d="M331.179 240.196C330.423 240.202 329.687 239.956 329.086 239.498C328.485 239.04 328.053 238.395 327.857 237.665C327.662 236.935 327.715 236.16 328.007 235.463C328.299 234.766 328.814 234.186 329.472 233.813L364.902 213.712C365.293 213.48 365.725 213.328 366.175 213.265C366.625 213.202 367.083 213.229 367.522 213.346C367.961 213.462 368.372 213.665 368.732 213.942C369.092 214.219 369.393 214.565 369.617 214.96C369.841 215.355 369.984 215.791 370.038 216.242C370.091 216.693 370.054 217.15 369.929 217.587C369.804 218.023 369.593 218.431 369.308 218.785C369.023 219.138 368.671 219.432 368.271 219.648L332.841 239.753C332.334 240.04 331.762 240.193 331.179 240.196Z" fill="#F58220"></path> <path d="M331.179 262.485C330.425 262.486 329.692 262.237 329.094 261.777C328.497 261.318 328.068 260.673 327.875 259.944C327.683 259.215 327.737 258.443 328.03 257.748C328.322 257.053 328.837 256.474 329.493 256.102L364.923 236.032C365.314 235.799 365.747 235.646 366.197 235.582C366.648 235.519 367.106 235.546 367.546 235.663C367.986 235.779 368.398 235.982 368.758 236.26C369.119 236.538 369.42 236.885 369.644 237.281C369.868 237.677 370.011 238.114 370.063 238.565C370.116 239.017 370.078 239.475 369.952 239.912C369.825 240.349 369.613 240.756 369.326 241.11C369.04 241.464 368.686 241.756 368.285 241.971L332.855 262.042C332.345 262.334 331.767 262.487 331.179 262.485Z" fill="#F58220"></path> <path d="M348.276 275.115C347.522 275.115 346.789 274.866 346.191 274.407C345.594 273.947 345.165 273.302 344.973 272.573C344.78 271.844 344.834 271.072 345.127 270.377C345.419 269.682 345.934 269.103 346.59 268.732L364.919 258.321C365.707 257.874 366.64 257.759 367.513 258C368.385 258.241 369.127 258.819 369.573 259.606C370.02 260.394 370.136 261.326 369.895 262.199C369.654 263.072 369.076 263.813 368.288 264.26L349.959 274.667C349.446 274.961 348.866 275.115 348.276 275.115Z" fill="#F58220"></path> </svg> 