<?xml version="1.0" encoding="UTF-8"?> <svg xmlns="http://www.w3.org/2000/svg" width="45" height="45" viewBox="0 0 45 45" fill="none"> <g clip-path="url(#clip0)"> <path d="M22.6651 6.87502C19.3321 6.84533 16.1201 8.12211 13.7171 10.4319C11.3141 12.7416 9.91128 15.9006 9.80911 19.2321C9.7287 21.9771 10.5477 24.6731 12.1414 26.9095C13.8266 29.3205 14.7163 32.1978 14.686 35.1393V38.529C14.686 38.6185 14.7054 38.7068 14.7431 38.7879C14.7807 38.8691 14.8356 38.941 14.904 38.9987L17.1413 40.8912V43.1992C17.1419 43.6768 17.3319 44.1346 17.6697 44.4722C18.0075 44.8098 18.4655 44.9996 18.9431 44.9999H26.058C26.5355 44.9994 26.9933 44.8095 27.331 44.4718C27.6687 44.1342 27.8586 43.6763 27.859 43.1988V40.8908L30.0964 38.9984C30.1647 38.9406 30.2196 38.8687 30.2572 38.7876C30.2949 38.7065 30.3144 38.6181 30.3143 38.5287V35.1378C30.3151 32.1538 31.2315 29.2419 32.9398 26.7953C34.2501 24.9017 35.0207 22.6875 35.1693 20.3897C35.3178 18.0918 34.8386 15.7968 33.7831 13.7503C32.7275 11.7039 31.1353 9.983 29.1769 8.77191C27.2184 7.56082 24.9675 6.90513 22.6651 6.87502V6.87502ZM27.0188 39.9922H17.9836L16.2068 38.4896H28.7956L27.0188 39.9922ZM29.0842 37.2592H15.9168V35.7538H29.0842V37.2592ZM26.6289 43.2006C26.6287 43.3519 26.5686 43.4969 26.4616 43.6038C26.3546 43.7108 26.2096 43.771 26.0583 43.7712H18.9431C18.7918 43.771 18.6468 43.7108 18.5398 43.6038C18.4328 43.4969 18.3727 43.3519 18.3725 43.2006V41.2227H26.6286L26.6289 43.2006ZM31.9287 26.0942C30.1974 28.575 29.2143 31.5005 29.0962 34.5233H15.9056C15.8207 31.5372 14.8607 28.6418 13.1447 26.1966C11.7066 24.1773 10.9674 21.7435 11.0396 19.2655C11.1297 16.2816 12.3757 13.4494 14.5147 11.367C16.6536 9.28449 19.5181 8.11466 22.5033 8.10443H22.6492C24.7286 8.13134 26.7615 8.72323 28.5303 9.81674C30.2991 10.9102 31.7372 12.4642 32.6907 14.3123C33.6442 16.1603 34.0772 18.2329 33.9433 20.3081C33.8093 22.3833 33.1136 24.383 31.9305 26.0932L31.9287 26.0942Z" fill="#F58220"></path> <path d="M29.2655 19.5758C29.0969 18.882 28.8232 18.2181 28.4537 17.6071L29.2602 16.8003C29.3174 16.7431 29.3627 16.6753 29.3937 16.6007C29.4246 16.526 29.4406 16.446 29.4406 16.3652C29.4406 16.2844 29.4246 16.2044 29.3937 16.1297C29.3627 16.0551 29.3174 15.9872 29.2602 15.9301L27.7959 14.4659C27.7388 14.4087 27.671 14.3633 27.5964 14.3324C27.5217 14.3014 27.4417 14.2855 27.3609 14.2855C27.2801 14.2855 27.2 14.3014 27.1254 14.3324C27.0507 14.3633 26.9829 14.4087 26.9258 14.4659L26.1239 15.2678C25.5126 14.8951 24.8476 14.6185 24.1523 14.4476V13.3159C24.1523 13.1527 24.0875 12.9963 23.9721 12.8809C23.8568 12.7655 23.7003 12.7007 23.5371 12.7007H21.4646C21.3015 12.7007 21.145 12.7655 21.0296 12.8809C20.9142 12.9963 20.8494 13.1527 20.8494 13.3159V14.4476C20.1535 14.6183 19.488 14.8949 18.8761 15.2678L18.0738 14.4655C18.0167 14.4083 17.9489 14.363 17.8743 14.332C17.7996 14.3011 17.7196 14.2852 17.6388 14.2852C17.558 14.2852 17.4779 14.3011 17.4033 14.332C17.3286 14.363 17.2608 14.4083 17.2037 14.4655L15.7395 15.9298C15.6823 15.9869 15.6369 16.0547 15.606 16.1294C15.575 16.204 15.5591 16.284 15.5591 16.3648C15.5591 16.4457 15.575 16.5257 15.606 16.6003C15.6369 16.675 15.6823 16.7428 15.7395 16.7999L16.5459 17.6067C16.1765 18.2177 15.9027 18.8817 15.7342 19.5755H14.5898C14.4267 19.5755 14.2702 19.6403 14.1548 19.7557C14.0394 19.8711 13.9746 20.0276 13.9746 20.1907V22.2614C13.9746 22.4246 14.0394 22.5811 14.1548 22.6965C14.2702 22.8118 14.4267 22.8767 14.5898 22.8767H15.744C15.9148 23.5663 16.1899 24.2258 16.5596 24.8324L15.7395 25.6526C15.6823 25.7097 15.6369 25.7775 15.606 25.8522C15.575 25.9268 15.5591 26.0068 15.5591 26.0877C15.5591 26.1685 15.575 26.2485 15.606 26.3231C15.6369 26.3978 15.6823 26.4656 15.7395 26.5227L17.2037 27.987C17.3212 28.0982 17.4769 28.1603 17.6388 28.1603C17.8006 28.1603 17.9563 28.0982 18.0738 27.987L18.8986 27.1622C19.5037 27.5281 20.1609 27.8 20.8477 27.9687V29.1362C20.8477 29.2994 20.9125 29.4559 21.0279 29.5713C21.1432 29.6866 21.2997 29.7515 21.4629 29.7515H23.5339C23.6971 29.7515 23.8536 29.6866 23.969 29.5713C24.0844 29.4559 24.1492 29.2994 24.1492 29.1362V27.9687C24.8365 27.8002 25.4943 27.5283 26.1 27.1622L26.9248 27.987C26.9819 28.0442 27.0497 28.0895 27.1243 28.1205C27.199 28.1514 27.279 28.1673 27.3598 28.1673C27.4406 28.1673 27.5207 28.1514 27.5953 28.1205C27.67 28.0895 27.7378 28.0442 27.7949 27.987L29.2591 26.5227C29.3163 26.4656 29.3617 26.3978 29.3926 26.3231C29.4236 26.2485 29.4395 26.1685 29.4395 26.0877C29.4395 26.0068 29.4236 25.9268 29.3926 25.8522C29.3617 25.7775 29.3163 25.7097 29.2591 25.6526L28.4414 24.8324C28.8111 24.2259 29.0862 23.5665 29.257 22.877H30.4102C30.5733 22.877 30.7298 22.8122 30.8452 22.6968C30.9606 22.5814 31.0254 22.4249 31.0254 22.2618V20.1911C31.0254 20.0279 30.9606 19.8714 30.8452 19.756C30.7298 19.6407 30.5733 19.5758 30.4102 19.5758H29.2655ZM29.7949 21.6465H28.7557C28.6101 21.6465 28.4692 21.6981 28.3581 21.7921C28.247 21.8862 28.1729 22.0166 28.1489 22.1602C28.0027 23.0228 27.6611 23.8406 27.1501 24.5508C27.0641 24.6695 27.0233 24.815 27.035 24.9612C27.0468 25.1073 27.1105 25.2444 27.2145 25.3478L27.9555 26.0861L27.3614 26.6802L26.6179 25.9363C26.5149 25.8333 26.3787 25.7701 26.2335 25.7581C26.0883 25.746 25.9436 25.7859 25.8251 25.8706C25.1138 26.3776 24.2962 26.7155 23.4345 26.8585C23.2908 26.8827 23.1603 26.9572 23.0665 27.0687C22.9726 27.1801 22.9213 27.3213 22.9219 27.467V28.5217H22.0781V27.467C22.0784 27.3213 22.0269 27.1803 21.9328 27.069C21.8387 26.9577 21.7082 26.8835 21.5645 26.8595C20.7028 26.7165 19.8851 26.3787 19.1739 25.8716C19.0553 25.787 18.9106 25.7471 18.7654 25.7591C18.6203 25.7712 18.4841 25.8343 18.3811 25.9374L17.6375 26.6813L17.0434 26.0871L17.7855 25.3478C17.889 25.2446 17.9523 25.1079 17.9641 24.9622C17.9758 24.8165 17.9354 24.6714 17.8499 24.5529C17.3389 23.8427 16.9973 23.0249 16.8511 22.1623C16.8271 22.0187 16.753 21.8883 16.6419 21.7942C16.5308 21.7002 16.3899 21.6486 16.2443 21.6487H15.2051V20.8084H16.2376C16.3838 20.8085 16.5252 20.7564 16.6366 20.6617C16.7479 20.5669 16.8218 20.4356 16.8451 20.2913C16.9867 19.424 17.3256 18.6009 17.8358 17.8855C17.9205 17.767 17.9604 17.6223 17.9483 17.4771C17.9363 17.3319 17.8731 17.1957 17.7701 17.0928L17.0445 16.3671L17.6386 15.773L18.3614 16.4958C18.4647 16.5992 18.6014 16.6624 18.747 16.6742C18.8927 16.686 19.0377 16.6456 19.1563 16.5601C19.8711 16.0455 20.6952 15.7029 21.5641 15.5589C21.7082 15.5348 21.8391 15.4603 21.9333 15.3486C22.0274 15.2369 22.0788 15.0954 22.0781 14.9493V13.9297H22.9219V14.9493C22.9219 15.0952 22.9737 15.2364 23.0682 15.3476C23.1627 15.4588 23.2936 15.5328 23.4376 15.5564C24.3061 15.701 25.1295 16.044 25.8437 16.5587C25.9622 16.6443 26.1073 16.6848 26.253 16.673C26.3987 16.6612 26.5354 16.5979 26.6386 16.4944L27.3614 15.7716L27.9555 16.3657L27.2299 17.0913C27.1269 17.1943 27.0637 17.3305 27.0517 17.4757C27.0396 17.6209 27.0795 17.7656 27.1642 17.8841C27.6744 18.5995 28.0133 19.4226 28.1549 20.2899C28.1782 20.4342 28.2521 20.5655 28.3634 20.6603C28.4748 20.755 28.6162 20.807 28.7624 20.807H29.7949V21.6465Z" fill="#F58220"></path> <path d="M22.5 16.8838C21.6448 16.8838 20.8087 17.1374 20.0976 17.6125C19.3865 18.0877 18.8322 18.7631 18.5049 19.5532C18.1777 20.3433 18.092 21.2128 18.2589 22.0516C18.4257 22.8904 18.8376 23.6609 19.4423 24.2657C20.0471 24.8704 20.8176 25.2823 21.6564 25.4491C22.4952 25.616 23.3647 25.5303 24.1548 25.2031C24.945 24.8758 25.6203 24.3215 26.0955 23.6104C26.5706 22.8993 26.8242 22.0633 26.8242 21.208C26.8226 20.0616 26.3666 18.9627 25.5559 18.1521C24.7453 17.3415 23.6464 16.8854 22.5 16.8838V16.8838ZM22.5 24.3039C21.8881 24.3039 21.29 24.1224 20.7812 23.7825C20.2724 23.4425 19.8759 22.9593 19.6418 22.394C19.4076 21.8287 19.3463 21.2067 19.4657 20.6066C19.5851 20.0064 19.8797 19.4552 20.3124 19.0225C20.7451 18.5898 21.2963 18.2952 21.8964 18.1758C22.4966 18.0564 23.1186 18.1177 23.6839 18.3519C24.2492 18.586 24.7324 18.9826 25.0724 19.4913C25.4123 20.0001 25.5938 20.5982 25.5938 21.2101C25.5926 22.0303 25.2663 22.8166 24.6864 23.3966C24.1065 23.9766 23.3202 24.303 22.5 24.3042V24.3039Z" fill="#F58220"></path> <path d="M22.5 4.77527C22.6632 4.77527 22.8197 4.71045 22.935 4.59508C23.0504 4.4797 23.1152 4.32321 23.1152 4.16004V0.615234C23.1152 0.452064 23.0504 0.295577 22.935 0.180198C22.8197 0.0648191 22.6632 0 22.5 0C22.3368 0 22.1803 0.0648191 22.065 0.180198C21.9496 0.295577 21.8848 0.452064 21.8848 0.615234V4.16004C21.8848 4.32321 21.9496 4.4797 22.065 4.59508C22.1803 4.71045 22.3368 4.77527 22.5 4.77527V4.77527Z" fill="#F58220"></path> <path d="M37.5394 6.59036L35.0327 9.097C34.9756 9.15414 34.9303 9.22196 34.8994 9.29661C34.8685 9.37126 34.8525 9.45127 34.8525 9.53206C34.8525 9.61286 34.8685 9.69287 34.8994 9.76752C34.9303 9.84216 34.9756 9.90999 35.0327 9.96712C35.0899 10.0243 35.1577 10.0696 35.2324 10.1005C35.307 10.1314 35.387 10.1473 35.4678 10.1473C35.5486 10.1473 35.6286 10.1314 35.7033 10.1005C35.7779 10.0696 35.8457 10.0243 35.9029 9.96712L38.4095 7.46048C38.4666 7.40335 38.512 7.33552 38.5429 7.26087C38.5738 7.18623 38.5897 7.10622 38.5897 7.02542C38.5897 6.94462 38.5738 6.86462 38.5429 6.78997C38.512 6.71532 38.4666 6.6475 38.4095 6.59036C38.3524 6.53323 38.2845 6.48791 38.2099 6.45699C38.1352 6.42607 38.0552 6.41016 37.9744 6.41016C37.8936 6.41016 37.8136 6.42607 37.739 6.45699C37.6643 6.48791 37.5965 6.53323 37.5394 6.59036V6.59036Z" fill="#F58220"></path> <path d="M44.3846 21.8848H40.8398C40.6767 21.8848 40.5202 21.9496 40.4048 22.065C40.2894 22.1803 40.2246 22.3368 40.2246 22.5C40.2246 22.6632 40.2894 22.8197 40.4048 22.935C40.5202 23.0504 40.6767 23.1152 40.8398 23.1152H44.3846C44.5478 23.1152 44.7043 23.0504 44.8197 22.935C44.9351 22.8197 44.9999 22.6632 44.9999 22.5C44.9999 22.3368 44.9351 22.1803 44.8197 22.065C44.7043 21.9496 44.5478 21.8848 44.3846 21.8848V21.8848Z" fill="#F58220"></path> <path d="M4.16004 21.8848H0.615234C0.452064 21.8848 0.295577 21.9496 0.180198 22.065C0.0648191 22.1803 0 22.3368 0 22.5C0 22.6632 0.0648191 22.8197 0.180198 22.935C0.295577 23.0504 0.452064 23.1152 0.615234 23.1152H4.16004C4.32321 23.1152 4.4797 23.0504 4.59508 22.935C4.71045 22.8197 4.77527 22.6632 4.77527 22.5C4.77527 22.3368 4.71045 22.1803 4.59508 22.065C4.4797 21.9496 4.32321 21.8848 4.16004 21.8848V21.8848Z" fill="#F58220"></path> <path d="M9.96712 9.097L7.46048 6.59036C7.3451 6.47498 7.1886 6.41016 7.02542 6.41016C6.86224 6.41016 6.70575 6.47498 6.59036 6.59036C6.47498 6.70575 6.41016 6.86224 6.41016 7.02542C6.41016 7.1886 6.47498 7.3451 6.59036 7.46048L9.097 9.96712C9.21239 10.0825 9.36888 10.1473 9.53206 10.1473C9.69524 10.1473 9.85174 10.0825 9.96712 9.96712C10.0825 9.85174 10.1473 9.69524 10.1473 9.53206C10.1473 9.36888 10.0825 9.21239 9.96712 9.097V9.097Z" fill="#F58220"></path> </g> <defs> <clipPath id="clip0"> <rect width="45" height="45" fill="white"></rect> </clipPath> </defs> </svg> 