<?xml version="1.0" encoding="UTF-8"?> <svg xmlns="http://www.w3.org/2000/svg" width="512" height="512" viewBox="0 0 512 512" fill="none"> <path d="M256 408.815C225.775 408.815 196.229 399.852 171.098 383.06C145.967 366.268 126.38 342.401 114.814 314.477C103.248 286.553 100.222 255.826 106.118 226.182C112.015 196.538 126.57 169.308 147.942 147.937C169.315 126.565 196.545 112.01 226.189 106.114C255.833 100.218 286.56 103.245 314.483 114.812C342.407 126.379 366.274 145.967 383.066 171.098C399.857 196.229 408.819 225.775 408.818 256C408.772 296.516 392.657 335.358 364.008 364.007C335.359 392.655 296.516 408.77 256 408.815ZM256 110.008C227.126 110.008 198.9 118.571 174.891 134.612C150.883 150.654 132.171 173.455 121.121 200.131C110.072 226.808 107.18 256.162 112.814 284.482C118.447 312.801 132.351 338.814 152.768 359.232C173.186 379.649 199.199 393.553 227.518 399.187C255.838 404.82 285.192 401.929 311.869 390.879C338.545 379.829 361.346 361.117 377.388 337.109C393.429 313.1 401.992 284.874 401.992 256C401.948 217.294 386.553 180.186 359.184 152.816C331.814 125.447 294.706 110.052 256 110.008Z" fill="#F58220"></path> <path d="M182.415 334.452H163.905C163 334.452 162.131 334.092 161.491 333.452C160.851 332.812 160.491 331.944 160.491 331.039V259.918C160.491 259.013 160.851 258.145 161.491 257.505C162.131 256.865 163 256.505 163.905 256.505H182.415C183.321 256.505 184.189 256.865 184.829 257.505C185.469 258.145 185.829 259.013 185.829 259.918V331.039C185.829 331.944 185.469 332.812 184.829 333.452C184.189 334.092 183.321 334.452 182.415 334.452ZM167.318 327.625H179.002V263.332H167.318V327.625Z" fill="#F58220"></path> <path d="M237.643 334.452H219.136C218.231 334.452 217.363 334.092 216.722 333.452C216.082 332.812 215.723 331.944 215.723 331.039V222.655C215.723 221.75 216.082 220.882 216.722 220.241C217.363 219.601 218.231 219.242 219.136 219.242H237.65C238.555 219.242 239.423 219.601 240.064 220.241C240.704 220.882 241.063 221.75 241.063 222.655V331.039C241.063 331.487 240.975 331.932 240.803 332.346C240.631 332.761 240.379 333.138 240.061 333.455C239.743 333.772 239.366 334.023 238.951 334.194C238.536 334.365 238.092 334.453 237.643 334.452ZM222.542 327.625H234.23V226.068H222.549L222.542 327.625Z" fill="#F58220"></path> <path d="M292.864 334.452H274.357C273.452 334.452 272.583 334.092 271.943 333.452C271.303 332.812 270.944 331.944 270.944 331.039V243.333C270.944 242.428 271.303 241.56 271.943 240.919C272.583 240.279 273.452 239.92 274.357 239.92H292.864C293.769 239.92 294.638 240.279 295.278 240.919C295.918 241.56 296.277 242.428 296.277 243.333V331.039C296.277 331.944 295.918 332.812 295.278 333.452C294.638 334.092 293.769 334.452 292.864 334.452ZM277.763 327.625H289.451V246.746H277.77L277.763 327.625Z" fill="#F58220"></path> <path d="M348.095 334.452H329.585C328.679 334.452 327.811 334.092 327.171 333.452C326.531 332.812 326.171 331.944 326.171 331.039V222.655C326.171 221.75 326.531 220.882 327.171 220.241C327.811 219.601 328.679 219.242 329.585 219.242H348.095C349.001 219.242 349.869 219.601 350.509 220.241C351.149 220.882 351.509 221.75 351.509 222.655V331.039C351.509 331.944 351.149 332.812 350.509 333.452C349.869 334.092 349.001 334.452 348.095 334.452ZM332.998 327.625H344.682V226.068H332.998V327.625Z" fill="#F58220"></path> <path d="M273.964 217.177C273.417 217.177 272.877 217.046 272.391 216.794L234.81 197.239C234.007 196.821 233.402 196.101 233.13 195.237C232.857 194.373 232.939 193.437 233.358 192.633C233.776 191.83 234.496 191.225 235.36 190.953C236.224 190.681 237.16 190.763 237.964 191.181L275.545 210.736C276.223 211.089 276.763 211.659 277.078 212.356C277.393 213.052 277.466 213.834 277.284 214.577C277.101 215.319 276.675 215.979 276.073 216.451C275.471 216.922 274.729 217.178 273.964 217.177Z" fill="#F58220"></path> <path d="M180.719 230.878C180.013 230.879 179.324 230.661 178.747 230.254C178.17 229.847 177.734 229.272 177.497 228.607C177.261 227.941 177.237 227.219 177.428 226.54C177.619 225.86 178.017 225.257 178.565 224.812L218.112 192.785C218.46 192.503 218.861 192.292 219.291 192.164C219.721 192.036 220.171 191.995 220.617 192.041C221.063 192.088 221.496 192.222 221.89 192.435C222.284 192.649 222.632 192.938 222.915 193.287C223.197 193.635 223.408 194.036 223.536 194.465C223.663 194.895 223.705 195.346 223.658 195.792C223.612 196.238 223.478 196.67 223.264 197.064C223.05 197.459 222.761 197.807 222.413 198.089L182.866 230.117C182.259 230.609 181.501 230.877 180.719 230.878Z" fill="#F58220"></path> <path d="M291.174 214.924C290.462 214.925 289.766 214.703 289.186 214.288C288.606 213.874 288.17 213.289 287.939 212.614C287.709 211.939 287.695 211.209 287.901 210.526C288.107 209.844 288.521 209.243 289.086 208.807L328.219 178.657C328.574 178.381 328.98 178.177 329.414 178.058C329.847 177.939 330.3 177.907 330.746 177.964C331.193 178.02 331.623 178.165 332.013 178.388C332.404 178.612 332.746 178.91 333.02 179.266C333.295 179.622 333.496 180.029 333.613 180.464C333.73 180.898 333.76 181.351 333.701 181.797C333.642 182.243 333.496 182.672 333.27 183.062C333.045 183.451 332.745 183.791 332.387 184.064L293.253 214.214C292.657 214.673 291.927 214.923 291.174 214.924Z" fill="#F58220"></path> <path d="M173.158 246.747C170.558 246.746 168.016 245.974 165.855 244.529C163.693 243.084 162.008 241.03 161.014 238.628C160.019 236.225 159.759 233.581 160.267 231.031C160.774 228.481 162.027 226.138 163.866 224.3C165.705 222.462 168.048 221.21 170.598 220.703C173.148 220.196 175.792 220.456 178.194 221.451C180.597 222.447 182.65 224.132 184.094 226.294C185.539 228.456 186.31 230.998 186.31 233.598C186.306 237.085 184.92 240.428 182.454 242.893C179.988 245.358 176.645 246.744 173.158 246.747ZM173.158 227.291C171.908 227.291 170.686 227.663 169.647 228.358C168.608 229.053 167.798 230.04 167.321 231.195C166.843 232.35 166.718 233.621 166.962 234.847C167.207 236.073 167.809 237.199 168.693 238.083C169.577 238.967 170.704 239.569 171.93 239.812C173.156 240.056 174.427 239.931 175.582 239.452C176.737 238.973 177.724 238.163 178.418 237.124C179.113 236.084 179.483 234.862 179.483 233.612C179.484 232.781 179.321 231.957 179.004 231.189C178.686 230.421 178.221 229.722 177.633 229.134C177.046 228.546 176.349 228.079 175.581 227.76C174.813 227.442 173.99 227.277 173.158 227.277V227.291Z" fill="#F58220"></path> <path d="M227.912 202.574C225.31 202.575 222.767 201.804 220.605 200.359C218.442 198.914 216.756 196.86 215.761 194.457C214.765 192.054 214.505 189.409 215.013 186.858C215.521 184.307 216.775 181.964 218.615 180.125C220.455 178.287 222.799 177.035 225.35 176.529C227.902 176.023 230.546 176.285 232.948 177.283C235.351 178.28 237.404 179.967 238.847 182.131C240.29 184.295 241.059 186.839 241.056 189.44C241.049 192.923 239.662 196.261 237.198 198.723C234.734 201.185 231.395 202.57 227.912 202.574ZM227.912 183.118C226.661 183.118 225.439 183.488 224.399 184.182C223.359 184.876 222.548 185.863 222.069 187.018C221.59 188.173 221.464 189.445 221.708 190.671C221.951 191.898 222.553 193.024 223.437 193.909C224.321 194.793 225.447 195.395 226.674 195.64C227.9 195.884 229.171 195.759 230.327 195.281C231.482 194.802 232.469 193.992 233.164 192.952C233.859 191.913 234.23 190.69 234.23 189.44C234.231 187.762 233.567 186.152 232.382 184.964C231.197 183.776 229.589 183.107 227.912 183.105V183.118Z" fill="#F58220"></path> <path d="M283.136 230.147C280.535 230.149 277.992 229.379 275.829 227.935C273.666 226.491 271.98 224.438 270.984 222.036C269.988 219.633 269.726 216.989 270.233 214.438C270.739 211.887 271.991 209.544 273.83 207.705C275.668 205.865 278.011 204.612 280.562 204.104C283.112 203.596 285.756 203.856 288.159 204.851C290.562 205.846 292.616 207.531 294.061 209.694C295.506 211.856 296.277 214.398 296.277 216.999C296.274 220.484 294.888 223.825 292.425 226.29C289.961 228.755 286.621 230.142 283.136 230.147ZM283.136 210.691C281.885 210.69 280.661 211.06 279.621 211.754C278.58 212.449 277.769 213.436 277.289 214.592C276.81 215.748 276.685 217.02 276.929 218.247C277.174 219.474 277.776 220.601 278.662 221.485C279.547 222.369 280.674 222.971 281.902 223.214C283.129 223.457 284.401 223.33 285.556 222.85C286.711 222.37 287.698 221.557 288.391 220.516C289.085 219.474 289.453 218.25 289.451 216.999C289.449 215.325 288.783 213.719 287.599 212.535C286.416 211.351 284.81 210.684 283.136 210.681V210.691Z" fill="#F58220"></path> <path d="M338.36 189.071C335.76 189.071 333.218 188.3 331.055 186.855C328.893 185.41 327.208 183.357 326.213 180.954C325.218 178.551 324.957 175.908 325.465 173.357C325.973 170.806 327.225 168.464 329.064 166.625C330.904 164.786 333.247 163.534 335.797 163.027C338.348 162.52 340.992 162.781 343.394 163.777C345.797 164.773 347.85 166.458 349.294 168.621C350.739 170.784 351.509 173.326 351.508 175.927C351.504 179.412 350.117 182.753 347.652 185.218C345.187 187.682 341.846 189.068 338.36 189.071ZM338.36 169.615C337.11 169.615 335.888 169.986 334.849 170.681C333.809 171.375 332.999 172.362 332.52 173.517C332.042 174.672 331.916 175.943 332.16 177.169C332.404 178.395 333.005 179.522 333.889 180.406C334.773 181.29 335.899 181.892 337.125 182.137C338.351 182.381 339.622 182.256 340.777 181.778C341.932 181.3 342.92 180.491 343.615 179.451C344.31 178.412 344.681 177.19 344.682 175.94C344.684 174.262 344.019 172.651 342.833 171.462C341.648 170.274 340.039 169.605 338.36 169.602V169.615Z" fill="#F58220"></path> <path d="M364.705 334.452H147.296C146.39 334.452 145.522 334.093 144.882 333.452C144.242 332.812 143.882 331.944 143.882 331.039C143.882 330.134 144.242 329.265 144.882 328.625C145.522 327.985 146.39 327.625 147.296 327.625H364.705C365.61 327.625 366.478 327.985 367.118 328.625C367.758 329.265 368.118 330.134 368.118 331.039C368.118 331.944 367.758 332.812 367.118 333.452C366.478 334.093 365.61 334.452 364.705 334.452Z" fill="#F58220"></path> <path d="M256 110.008C255.095 110.008 254.227 109.649 253.586 109.009C252.946 108.369 252.587 107.5 252.587 106.595V71.5845C252.587 70.6792 252.946 69.811 253.586 69.1709C254.227 68.5308 255.095 68.1711 256 68.1711C256.905 68.1711 257.773 68.5308 258.414 69.1709C259.054 69.811 259.413 70.6792 259.413 71.5845V106.595C259.413 107.5 259.054 108.369 258.414 109.009C257.773 109.649 256.905 110.008 256 110.008Z" fill="#F58220"></path> <path d="M256 74.9977C251.959 74.9977 248.009 73.7994 244.649 71.5543C241.288 69.3092 238.67 66.1181 237.123 62.3846C235.577 58.6511 235.172 54.5429 235.96 50.5794C236.749 46.6159 238.695 42.9753 241.552 40.1178C244.41 37.2603 248.051 35.3143 252.014 34.5259C255.977 33.7375 260.086 34.1422 263.819 35.6886C267.553 37.2351 270.744 39.8539 272.989 43.214C275.234 46.5741 276.432 50.5244 276.432 54.5655C276.427 59.9828 274.272 65.1767 270.442 69.0073C266.611 72.8379 261.417 74.9923 256 74.9977ZM256 40.96C253.309 40.96 250.679 41.7579 248.441 43.2529C246.204 44.7479 244.46 46.8728 243.43 49.3589C242.4 51.845 242.131 54.5806 242.656 57.2198C243.181 59.8591 244.477 62.2833 246.38 64.1861C248.282 66.0889 250.707 67.3847 253.346 67.9096C255.985 68.4346 258.721 68.1652 261.207 67.1354C263.693 66.1056 265.818 64.3618 267.313 62.1244C268.808 59.8869 269.606 57.2564 269.606 54.5655C269.602 50.9582 268.167 47.4997 265.617 44.9489C263.066 42.3982 259.607 40.9636 256 40.96Z" fill="#F58220"></path> <path d="M168.185 138.544C167.647 138.544 167.116 138.417 166.636 138.172C166.156 137.928 165.74 137.573 165.424 137.138L144.845 108.807C144.581 108.444 144.391 108.034 144.286 107.598C144.181 107.162 144.163 106.71 144.233 106.267C144.302 105.824 144.459 105.4 144.693 105.017C144.926 104.635 145.233 104.302 145.596 104.038C145.958 103.775 146.369 103.585 146.805 103.48C147.241 103.375 147.693 103.357 148.135 103.426C148.578 103.496 149.003 103.652 149.385 103.886C149.768 104.12 150.1 104.427 150.364 104.789L170.943 133.12C171.313 133.629 171.535 134.23 171.585 134.858C171.635 135.485 171.51 136.114 171.224 136.675C170.939 137.236 170.504 137.707 169.968 138.036C169.431 138.365 168.815 138.54 168.185 138.54V138.544Z" fill="#F58220"></path> <path d="M137.625 113.463C134.397 113.468 131.214 112.708 128.336 111.245C125.458 109.781 122.968 107.657 121.071 105.045C118.368 101.331 116.993 96.8147 117.17 92.2243C117.346 87.6338 119.063 83.2364 122.043 79.7406C125.024 76.2447 129.094 73.8541 133.599 72.9538C138.104 72.0535 142.781 72.696 146.876 74.7777C150.971 76.8594 154.246 80.2592 156.173 84.4293C158.1 88.5993 158.568 93.2967 157.5 97.7647C156.432 102.233 153.891 106.211 150.286 109.059C146.681 111.907 142.223 113.458 137.629 113.463H137.625ZM126.594 101.035C128.175 103.211 130.367 104.87 132.892 105.802C135.416 106.733 138.16 106.895 140.777 106.267C143.393 105.638 145.765 104.248 147.591 102.272C149.418 100.297 150.617 97.8233 151.038 95.1656C151.459 92.5079 151.083 89.785 149.956 87.3413C148.83 84.8976 147.004 82.8428 144.71 81.4367C142.416 80.0306 139.756 79.3364 137.067 79.4419C134.378 79.5473 131.781 80.4477 129.604 82.0291C126.687 84.1518 124.731 87.3455 124.167 90.909C123.602 94.4724 124.475 98.1142 126.594 101.035Z" fill="#F58220"></path> <path d="M113.91 213.248C113.551 213.246 113.196 213.189 112.855 213.077L79.5614 202.257C79.1155 202.136 78.6989 201.925 78.3368 201.638C77.9747 201.351 77.6747 200.993 77.455 200.587C77.2353 200.18 77.1004 199.733 77.0585 199.273C77.0166 198.813 77.0686 198.349 77.2113 197.909C77.354 197.47 77.5845 197.064 77.8888 196.716C78.1931 196.368 78.5648 196.086 78.9815 195.886C79.3981 195.686 79.851 195.573 80.3127 195.553C80.7744 195.534 81.2353 195.608 81.6674 195.772L114.964 206.592C115.74 206.841 116.401 207.36 116.827 208.054C117.254 208.747 117.418 209.571 117.291 210.375C117.164 211.18 116.753 211.912 116.133 212.44C115.513 212.968 114.724 213.257 113.91 213.255V213.248Z" fill="#F58220"></path> <path d="M64.4095 214.187C60.0958 214.182 55.8942 212.812 52.4068 210.273C48.9193 207.734 46.3249 204.156 44.9952 200.053C43.6655 195.949 43.6687 191.53 45.0044 187.428C46.3401 183.326 48.9397 179.752 52.4309 177.219C55.922 174.685 60.1256 173.321 64.4393 173.322C68.7531 173.324 72.9557 174.69 76.4452 177.227C79.9346 179.763 82.5318 183.338 83.8648 187.441C85.1977 191.544 85.198 195.963 83.8655 200.066C82.5415 204.18 79.9424 207.766 76.4446 210.305C72.9467 212.844 68.7316 214.203 64.4095 214.187ZM64.4095 180.139C60.9694 180.127 57.6513 181.412 55.1172 183.739C52.5831 186.065 51.0192 189.262 50.7376 192.69C50.4561 196.119 51.4775 199.527 53.5981 202.236C55.7187 204.945 58.7826 206.754 62.1785 207.304C65.5744 207.853 69.0527 207.102 71.9193 205.201C74.786 203.299 76.8303 200.386 77.6443 197.044C78.4583 193.702 77.9823 190.175 76.3112 187.168C74.64 184.161 71.8967 181.895 68.6284 180.821C67.267 180.372 65.8431 180.142 64.4095 180.139Z" fill="#F58220"></path> <path d="M80.6127 316.416C79.7985 316.417 79.0106 316.128 78.3911 315.6C77.7717 315.071 77.3615 314.339 77.2346 313.535C77.1077 312.73 77.2724 311.907 77.6991 311.214C78.1258 310.52 78.7863 310.002 79.5614 309.753L112.855 298.933C113.702 298.699 114.607 298.801 115.381 299.217C116.154 299.633 116.738 300.332 117.01 301.167C117.282 302.003 117.221 302.911 116.84 303.703C116.459 304.495 115.787 305.109 114.965 305.418L81.6674 316.235C81.3279 316.352 80.9717 316.413 80.6127 316.416Z" fill="#F58220"></path> <path d="M64.4028 338.688C59.2498 338.703 54.2805 336.775 50.486 333.289C46.6916 329.802 44.3509 325.013 43.931 319.877C43.511 314.741 45.0426 309.636 48.2202 305.579C51.3978 301.522 55.9879 298.813 61.0749 297.99C66.1619 297.168 71.372 298.294 75.6658 301.143C79.9596 303.992 83.0217 308.355 84.2411 313.362C85.4606 318.368 84.7478 323.651 82.245 328.155C79.7422 332.659 75.6334 336.055 70.738 337.664C68.6932 338.336 66.5552 338.682 64.4028 338.688ZM64.4028 304.64C62.4367 304.642 60.4943 305.07 58.7093 305.894C56.9244 306.719 55.3394 307.92 54.0634 309.416C52.7875 310.912 51.8509 312.667 51.3182 314.559C50.7855 316.452 50.6694 318.438 50.9777 320.379C51.2861 322.321 52.0117 324.173 53.1045 325.808C54.1973 327.442 55.6314 328.82 57.308 329.847C58.9846 330.874 60.8638 331.526 62.8164 331.757C64.7689 331.988 66.7483 331.793 68.6183 331.185C71.7004 330.184 74.324 328.116 76.0167 325.352C77.7095 322.589 78.3603 319.312 77.8521 316.112C77.3438 312.911 75.7099 309.997 73.2443 307.894C70.7787 305.791 67.6435 304.637 64.4028 304.64Z" fill="#F58220"></path> <path d="M147.599 408.607C146.97 408.606 146.354 408.431 145.818 408.101C145.282 407.772 144.848 407.301 144.563 406.74C144.278 406.179 144.153 405.551 144.203 404.923C144.253 404.296 144.475 403.695 144.845 403.187L165.424 374.856C165.688 374.493 166.021 374.187 166.404 373.953C166.787 373.719 167.212 373.563 167.655 373.494C168.098 373.424 168.55 373.443 168.986 373.548C169.422 373.654 169.833 373.844 170.196 374.108C170.558 374.373 170.865 374.706 171.099 375.088C171.332 375.471 171.488 375.896 171.558 376.339C171.627 376.783 171.609 377.235 171.503 377.671C171.398 378.107 171.207 378.518 170.943 378.88L150.364 407.211C150.046 407.645 149.63 407.998 149.149 408.24C148.669 408.483 148.138 408.609 147.599 408.607Z" fill="#F58220"></path> <path d="M137.574 439.388C132.988 439.38 128.538 437.828 124.94 434.982C121.343 432.137 118.808 428.163 117.744 423.702C116.68 419.24 117.148 414.55 119.074 410.388C121 406.225 124.27 402.831 128.359 400.753C132.448 398.676 137.118 398.035 141.615 398.933C146.113 399.832 150.177 402.219 153.153 405.709C156.13 409.199 157.845 413.589 158.022 418.172C158.2 422.755 156.83 427.265 154.132 430.974C152.234 433.586 149.744 435.71 146.865 437.173C143.987 438.635 140.803 439.395 137.574 439.388ZM137.615 405.361C135.287 405.357 132.996 405.952 130.963 407.088C128.929 408.223 127.222 409.862 126.003 411.846C124.784 413.831 124.095 416.095 124.002 418.422C123.909 420.749 124.415 423.061 125.471 425.136C126.527 427.212 128.098 428.982 130.034 430.276C131.97 431.571 134.206 432.347 136.528 432.53C138.849 432.713 141.179 432.297 143.294 431.321C145.409 430.346 147.238 428.845 148.606 426.96C150.081 424.932 150.966 422.535 151.163 420.035C151.361 417.535 150.864 415.029 149.727 412.794C148.589 410.559 146.856 408.682 144.719 407.37C142.582 406.058 140.123 405.363 137.615 405.361Z" fill="#F58220"></path> <path d="M256 443.825C255.095 443.825 254.227 443.466 253.586 442.826C252.946 442.186 252.587 441.317 252.587 440.412V405.402C252.587 404.496 252.946 403.628 253.586 402.988C254.227 402.348 255.095 401.988 256 401.988C256.905 401.988 257.773 402.348 258.414 402.988C259.054 403.628 259.413 404.496 259.413 405.402V440.412C259.413 441.317 259.054 442.186 258.414 442.826C257.773 443.466 256.905 443.825 256 443.825Z" fill="#F58220"></path> <path d="M256 477.867C251.958 477.867 248.007 476.669 244.645 474.424C241.284 472.179 238.664 468.987 237.117 465.253C235.57 461.519 235.165 457.41 235.954 453.445C236.742 449.481 238.688 445.839 241.546 442.981C244.405 440.123 248.046 438.176 252.011 437.388C255.975 436.599 260.084 437.004 263.819 438.552C267.553 440.099 270.744 442.719 272.99 446.08C275.235 449.441 276.433 453.392 276.432 457.434C276.426 462.851 274.271 468.045 270.441 471.875C266.61 475.706 261.417 477.86 256 477.867ZM256 443.825C253.308 443.825 250.677 444.622 248.438 446.117C246.2 447.612 244.455 449.737 243.425 452.224C242.394 454.711 242.124 457.447 242.649 460.087C243.173 462.727 244.469 465.153 246.372 467.056C248.276 468.96 250.7 470.256 253.34 470.782C255.98 471.307 258.717 471.038 261.204 470.008C263.691 468.978 265.816 467.234 267.312 464.995C268.807 462.757 269.606 460.126 269.606 457.434C269.602 453.827 268.168 450.368 265.617 447.817C263.066 445.265 259.608 443.83 256 443.825Z" fill="#F58220"></path> <path d="M364.401 408.607C363.862 408.607 363.33 408.48 362.849 408.236C362.369 407.991 361.953 407.637 361.636 407.201L341.057 378.88C340.78 378.519 340.579 378.105 340.464 377.665C340.35 377.224 340.325 376.765 340.39 376.315C340.456 375.864 340.611 375.432 340.846 375.042C341.081 374.652 341.392 374.314 341.76 374.046C342.129 373.778 342.547 373.587 342.99 373.483C343.433 373.379 343.892 373.365 344.341 373.442C344.79 373.518 345.219 373.683 345.603 373.928C345.986 374.173 346.318 374.492 346.576 374.866L367.155 403.197C367.525 403.706 367.747 404.307 367.797 404.934C367.847 405.561 367.722 406.189 367.437 406.75C367.152 407.311 366.718 407.782 366.182 408.112C365.646 408.441 365.03 408.616 364.401 408.617V408.607Z" fill="#F58220"></path> <path d="M374.443 439.388C370.945 439.393 367.505 438.501 364.452 436.796C361.399 435.091 358.834 432.631 357.004 429.651C355.174 426.67 354.139 423.271 353.999 419.776C353.859 416.282 354.619 412.81 356.205 409.693C357.792 406.576 360.151 403.919 363.059 401.976C365.966 400.032 369.324 398.868 372.81 398.593C376.297 398.319 379.795 398.945 382.971 400.41C386.146 401.875 388.892 404.131 390.946 406.961C393.159 410.007 394.488 413.606 394.784 417.359C395.08 421.113 394.333 424.875 392.625 428.231C390.917 431.586 388.314 434.404 385.105 436.373C381.896 438.342 378.204 439.386 374.439 439.388H374.443ZM374.402 405.361C371.347 405.365 368.383 406.398 365.987 408.293C363.591 410.187 361.902 412.834 361.193 415.805C360.483 418.776 360.795 421.899 362.077 424.672C363.359 427.445 365.537 429.705 368.261 431.089C370.984 432.473 374.094 432.9 377.089 432.301C380.084 431.702 382.791 430.113 384.773 427.788C386.755 425.464 387.897 422.54 388.015 419.488C388.133 416.435 387.22 413.432 385.423 410.962C384.162 409.217 382.502 407.799 380.582 406.825C378.662 405.851 376.538 405.349 374.385 405.361H374.402Z" fill="#F58220"></path> <path d="M431.387 316.416C431.029 316.416 430.673 316.358 430.333 316.245L397.036 305.428C396.213 305.119 395.541 304.505 395.16 303.713C394.779 302.921 394.718 302.013 394.99 301.177C395.262 300.342 395.846 299.643 396.619 299.227C397.393 298.811 398.298 298.709 399.145 298.943L432.439 309.763C433.214 310.013 433.874 310.531 434.301 311.224C434.728 311.917 434.892 312.741 434.765 313.545C434.639 314.349 434.228 315.081 433.609 315.61C432.989 316.138 432.201 316.428 431.387 316.426V316.416Z" fill="#F58220"></path> <path d="M447.597 338.688C444.642 338.692 441.721 338.054 439.035 336.82C436.35 335.585 433.964 333.783 432.043 331.537C430.121 329.292 428.71 326.656 427.905 323.812C427.101 320.968 426.923 317.984 427.383 315.064C427.844 312.145 428.932 309.36 430.573 306.902C432.214 304.444 434.368 302.371 436.888 300.825C439.407 299.28 442.232 298.3 445.167 297.952C448.102 297.604 451.077 297.897 453.888 298.81C458.51 300.317 462.444 303.422 464.984 307.568C467.523 311.714 468.502 316.629 467.744 321.431C466.987 326.233 464.542 330.609 460.85 333.771C457.158 336.934 452.459 338.677 447.597 338.688ZM447.597 304.64C444.173 304.637 440.874 305.925 438.357 308.248C435.841 310.57 434.293 313.756 434.022 317.17C433.752 320.583 434.778 323.973 436.896 326.663C439.015 329.353 442.07 331.146 445.452 331.683C448.833 332.22 452.293 331.462 455.141 329.56C457.989 327.659 460.015 324.753 460.814 321.424C461.614 318.095 461.129 314.586 459.456 311.598C457.783 308.611 455.045 306.364 451.789 305.306C450.432 304.863 449.014 304.638 447.587 304.64H447.597Z" fill="#F58220"></path> <path d="M398.09 213.248C397.276 213.25 396.487 212.962 395.867 212.433C395.247 211.905 394.836 211.173 394.709 210.368C394.582 209.564 394.746 208.74 395.173 208.047C395.599 207.353 396.26 206.835 397.036 206.585L430.333 195.765C430.765 195.601 431.226 195.527 431.687 195.547C432.149 195.566 432.602 195.679 433.019 195.879C433.435 196.079 433.807 196.361 434.111 196.709C434.416 197.057 434.646 197.463 434.789 197.903C434.931 198.342 434.983 198.806 434.942 199.266C434.9 199.726 434.765 200.173 434.545 200.58C434.325 200.986 434.025 201.344 433.663 201.631C433.301 201.918 432.885 202.129 432.439 202.25L399.145 213.071C398.805 213.184 398.449 213.244 398.09 213.248Z" fill="#F58220"></path> <path d="M447.59 214.187C442.722 214.193 438.012 212.46 434.308 209.302C430.604 206.143 428.149 201.765 427.386 196.958C426.623 192.15 427.601 187.227 430.145 183.077C432.689 178.927 436.631 175.821 441.262 174.319C444.07 173.408 447.042 173.117 449.973 173.465C452.905 173.813 455.726 174.791 458.243 176.334C460.76 177.877 462.913 179.947 464.553 182.401C466.193 184.855 467.282 187.636 467.745 190.551C468.208 193.467 468.033 196.448 467.234 199.29C466.434 202.131 465.028 204.766 463.113 207.012C461.197 209.258 458.818 211.063 456.138 212.301C453.458 213.54 450.542 214.183 447.59 214.187ZM447.59 180.139C446.157 180.143 444.733 180.373 443.371 180.821C440.15 181.887 437.448 184.127 435.805 187.095C434.161 190.064 433.696 193.542 434.503 196.838C435.309 200.134 437.327 203.005 440.156 204.879C442.984 206.753 446.415 207.493 449.764 206.951C453.114 206.409 456.136 204.625 458.229 201.955C460.322 199.284 461.332 195.923 461.058 192.541C460.784 189.159 459.245 186.005 456.749 183.706C454.254 181.408 450.983 180.134 447.59 180.139Z" fill="#F58220"></path> <path d="M343.815 138.544C343.185 138.544 342.567 138.369 342.03 138.04C341.493 137.711 341.058 137.239 340.773 136.678C340.487 136.116 340.363 135.487 340.413 134.859C340.463 134.231 340.686 133.629 341.057 133.12L361.636 104.789C361.892 104.41 362.222 104.086 362.607 103.836C362.991 103.587 363.422 103.418 363.873 103.338C364.324 103.259 364.786 103.271 365.233 103.375C365.679 103.478 366.1 103.67 366.471 103.939C366.841 104.208 367.154 104.549 367.39 104.942C367.626 105.335 367.78 105.771 367.844 106.224C367.908 106.678 367.88 107.14 367.762 107.582C367.643 108.025 367.437 108.439 367.155 108.8L346.576 137.131C346.26 137.568 345.845 137.923 345.365 138.169C344.885 138.415 344.354 138.543 343.815 138.544Z" fill="#F58220"></path> <path d="M374.374 113.463C370.61 113.459 366.919 112.414 363.711 110.445C360.502 108.476 357.9 105.658 356.192 102.303C354.485 98.9483 353.737 95.1866 354.033 91.4335C354.328 87.6805 355.655 84.0821 357.867 81.0359C359.921 78.2038 362.668 75.9464 365.844 74.4799C369.02 73.0135 372.519 72.3871 376.007 72.6608C379.494 72.9344 382.853 74.099 385.762 76.0429C388.67 77.9868 391.031 80.6449 392.618 83.7627C394.205 86.8805 394.964 90.3534 394.824 93.849C394.684 97.3445 393.649 100.745 391.818 103.726C389.986 106.707 387.42 109.168 384.365 110.872C381.311 112.577 377.869 113.469 374.371 113.463H374.374ZM363.394 85.0363C361.81 87.2134 360.908 89.8112 360.801 92.5011C360.694 95.1911 361.388 97.8523 362.794 100.148C364.199 102.444 366.255 104.271 368.699 105.399C371.144 106.526 373.868 106.904 376.527 106.483C379.186 106.062 381.66 104.862 383.637 103.035C385.614 101.207 387.004 98.8349 387.632 96.2172C388.261 93.5995 388.099 90.8542 387.166 88.3287C386.234 85.8032 384.574 83.6109 382.396 82.0292C379.476 79.9122 375.835 79.0399 372.273 79.6036C368.71 80.1674 365.517 82.1211 363.394 85.0363Z" fill="#F58220"></path> <path d="M157.17 175.172C156.518 175.173 155.878 174.986 155.328 174.635C154.778 174.283 154.341 173.781 154.067 173.188C153.794 172.596 153.696 171.937 153.786 171.29C153.875 170.644 154.149 170.036 154.573 169.54C173.615 147.27 199.421 131.842 228.052 125.611C228.493 125.506 228.952 125.491 229.399 125.567C229.847 125.642 230.275 125.805 230.659 126.048C231.043 126.291 231.374 126.607 231.634 126.979C231.894 127.352 232.077 127.772 232.172 128.216C232.267 128.66 232.273 129.118 232.189 129.564C232.105 130.01 231.933 130.435 231.683 130.814C231.433 131.193 231.109 131.518 230.732 131.77C230.355 132.023 229.931 132.197 229.485 132.284C202.319 138.199 177.834 152.841 159.768 173.974C159.447 174.35 159.049 174.652 158.601 174.858C158.152 175.065 157.664 175.172 157.17 175.172Z" fill="#F58220"></path> </svg> 