<?xml version="1.0" encoding="UTF-8"?> <svg xmlns="http://www.w3.org/2000/svg" width="512" height="512" viewBox="0 0 512 512" fill="none"> <path d="M134.069 210.374H133.864C128.364 210.051 123.12 207.946 118.922 204.378C114.725 200.809 111.803 195.972 110.599 190.596C109.394 185.22 109.972 179.598 112.246 174.58C114.52 169.562 118.365 165.421 123.201 162.782C123.594 162.562 124.028 162.423 124.476 162.372C124.923 162.321 125.377 162.358 125.81 162.483C126.243 162.608 126.647 162.818 126.998 163.1C127.35 163.382 127.642 163.731 127.859 164.126C128.075 164.522 128.21 164.956 128.258 165.404C128.305 165.853 128.263 166.306 128.134 166.738C128.006 167.17 127.793 167.572 127.508 167.921C127.223 168.27 126.872 168.559 126.474 168.772C122.938 170.7 120.125 173.728 118.462 177.396C116.799 181.065 116.376 185.175 117.257 189.106C118.138 193.036 120.275 196.573 123.344 199.181C126.414 201.789 130.249 203.326 134.27 203.561C135.176 203.588 136.033 203.973 136.654 204.632C137.276 205.291 137.61 206.17 137.583 207.075C137.556 207.98 137.171 208.838 136.512 209.459C135.853 210.08 134.974 210.414 134.069 210.388V210.374Z" fill="#F58220"></path> <path d="M288.062 210.343C287.156 210.369 286.278 210.034 285.619 209.412C284.961 208.79 284.577 207.932 284.551 207.027C284.525 206.122 284.86 205.243 285.482 204.585C286.104 203.927 286.962 203.542 287.867 203.517C291.73 203.302 295.43 201.884 298.447 199.462C301.464 197.039 303.647 193.733 304.691 190.007C305.734 186.281 305.586 182.322 304.266 178.685C302.947 175.048 300.522 171.915 297.332 169.725C296.949 169.475 296.62 169.151 296.364 168.772C296.109 168.393 295.932 167.966 295.845 167.517C295.757 167.068 295.761 166.606 295.855 166.159C295.95 165.712 296.133 165.288 296.395 164.913C296.656 164.537 296.99 164.219 297.377 163.975C297.764 163.732 298.196 163.568 298.648 163.495C299.099 163.422 299.561 163.44 300.005 163.548C300.449 163.657 300.867 163.854 301.234 164.127C305.58 167.131 308.88 171.417 310.673 176.387C312.466 181.358 312.661 186.764 311.233 191.85C309.804 196.937 306.823 201.451 302.705 204.762C298.587 208.072 293.538 210.014 288.263 210.316L288.062 210.343Z" fill="#F58220"></path> <path d="M288.372 417.82H49.1726C48.2673 417.82 47.3991 417.46 46.759 416.82C46.1189 416.18 45.7593 415.311 45.7593 414.406V380.99C45.5407 365.085 49.919 349.455 58.3681 335.978C79.4625 303.289 143.766 292.089 161.652 289.557L167.366 267.469C167.47 267.027 167.661 266.609 167.929 266.242C168.196 265.874 168.534 265.564 168.923 265.329C169.312 265.094 169.745 264.939 170.194 264.873C170.644 264.807 171.102 264.832 171.542 264.945C171.982 265.059 172.395 265.259 172.757 265.535C173.119 265.81 173.421 266.155 173.648 266.549C173.875 266.943 174.02 267.378 174.076 267.829C174.132 268.281 174.098 268.738 173.974 269.176L167.687 293.482C167.516 294.141 167.152 294.734 166.642 295.185C166.132 295.636 165.498 295.923 164.823 296.011C126.543 300.981 79.9848 315.061 64.0991 339.668C56.3693 352.041 52.374 366.382 52.5928 380.969V410.972H288.372C289.277 410.972 290.146 411.332 290.786 411.972C291.426 412.612 291.786 413.48 291.786 414.386C291.786 415.291 291.426 416.159 290.786 416.799C290.146 417.439 289.277 417.799 288.372 417.799V417.82Z" fill="#F58220"></path> <path d="M323.533 313.238C323.062 313.236 322.597 313.136 322.168 312.945C301.356 304.342 279.458 298.65 257.092 296.028C256.409 295.945 255.767 295.656 255.25 295.201C254.734 294.746 254.367 294.146 254.198 293.478L248.03 269.213C247.83 268.344 247.979 267.431 248.444 266.67C248.908 265.909 249.652 265.36 250.517 265.141C251.381 264.921 252.297 265.049 253.069 265.496C253.84 265.943 254.406 266.675 254.645 267.534L260.239 289.543C282.47 292.337 304.223 298.108 324.915 306.702C325.632 307.018 326.219 307.571 326.576 308.268C326.933 308.966 327.04 309.765 326.878 310.531C326.716 311.298 326.295 311.985 325.686 312.478C325.077 312.971 324.316 313.239 323.533 313.238V313.238Z" fill="#F58220"></path> <path d="M211.053 285.518C164.526 285.518 129.761 237.698 129.761 194.946V188.57C129.761 187.664 130.121 186.796 130.761 186.156C131.401 185.516 132.269 185.156 133.175 185.156C134.08 185.156 134.948 185.516 135.588 186.156C136.228 186.796 136.588 187.664 136.588 188.57V194.946C136.588 234.476 168.434 278.692 211.053 278.692C253.672 278.692 285.566 234.476 285.566 194.946V188.57C285.566 187.664 285.926 186.796 286.566 186.156C287.206 185.516 288.074 185.156 288.98 185.156C289.885 185.156 290.753 185.516 291.393 186.156C292.033 186.796 292.393 187.664 292.393 188.57V194.946C292.393 237.698 257.608 285.518 211.053 285.518V285.518Z" fill="#F58220"></path> <path d="M133.175 191.986H131.253C130.539 191.985 129.844 191.76 129.265 191.343C128.685 190.926 128.251 190.338 128.024 189.662C118.074 160.068 105.943 105.503 136.523 72.5846C146.3 61.7818 158.093 52.9929 171.24 46.7115C184.149 34.0822 209.503 33.5634 223.583 34.3962C244.809 36.0349 264.67 45.4959 279.316 60.9451C300.325 82.3331 309.548 114.855 305.288 152.518C304.302 161.195 301.496 177.596 293.751 189.993L293.506 190.389C293.199 190.88 292.772 191.285 292.266 191.565C291.759 191.846 291.19 191.993 290.611 191.993H288.969C288.096 191.995 287.255 191.661 286.62 191.061C285.985 190.461 285.604 189.64 285.556 188.768C284.669 172.776 284.061 166.697 278.094 155.931C275.422 151.115 269.524 143.152 260.174 144.002C231.7 146.358 203.109 141.14 177.302 128.877C174.067 127.229 170.375 126.703 166.809 127.382C163.242 128.062 160.002 129.909 157.6 132.632C145.002 148.657 137.657 168.18 136.571 188.536C136.576 188.987 136.492 189.435 136.323 189.854C136.154 190.273 135.903 190.654 135.586 190.976C135.268 191.297 134.89 191.552 134.473 191.726C134.056 191.9 133.609 191.99 133.157 191.99L133.175 191.986ZM261.516 137.107C270.431 137.107 278.583 142.664 284.088 152.61C288.765 160.638 291.407 169.688 291.782 178.971C295.273 170.25 297.537 161.087 298.51 151.743C302.534 116.166 293.99 85.6133 274.449 65.7272C260.986 51.4874 242.717 42.7517 223.181 41.2127C212.654 40.5914 186.914 40.3798 175.657 51.9544C175.35 52.2694 174.985 52.5221 174.582 52.6985C162.043 58.5991 150.806 66.9386 141.527 77.2302C116.838 103.813 122.754 146.862 130.946 176.046C134.063 158.637 141.401 142.257 152.317 128.341C155.662 124.393 160.243 121.69 165.317 120.671C170.391 119.652 175.661 120.376 180.272 122.726C204.97 134.461 232.333 139.452 259.584 137.192C260.229 137.134 260.874 137.107 261.512 137.107H261.516Z" fill="#F58220"></path> <path d="M100.376 417.792C99.4707 417.792 98.6025 417.432 97.9624 416.792C97.3223 416.152 96.9626 415.284 96.9626 414.379V353.239C96.9626 352.334 97.3223 351.466 97.9624 350.825C98.6025 350.185 99.4707 349.826 100.376 349.826C101.281 349.826 102.149 350.185 102.79 350.825C103.43 351.466 103.789 352.334 103.789 353.239V414.379C103.789 415.284 103.43 416.152 102.79 416.792C102.149 417.432 101.281 417.792 100.376 417.792Z" fill="#F58220"></path> <path d="M210.944 337.558C177.173 337.558 147.763 321.689 137.752 298.066C137.399 297.232 137.391 296.292 137.731 295.453C138.071 294.614 138.731 293.944 139.564 293.591C140.398 293.238 141.338 293.23 142.177 293.57C143.016 293.91 143.686 294.57 144.039 295.403C152.853 316.204 180.364 330.731 210.941 330.731C241.609 330.731 269.148 316.15 277.903 295.267C278.073 294.848 278.324 294.467 278.642 294.147C278.96 293.826 279.339 293.571 279.756 293.398C280.173 293.224 280.62 293.135 281.072 293.136C281.524 293.137 281.971 293.227 282.388 293.402C282.804 293.577 283.182 293.833 283.499 294.155C283.816 294.477 284.066 294.858 284.234 295.277C284.402 295.697 284.486 296.145 284.48 296.597C284.473 297.048 284.377 297.494 284.198 297.909C274.248 321.625 244.808 337.558 210.944 337.558Z" fill="#F58220"></path> <path d="M373.077 477.867C349.07 477.819 326.007 468.506 308.697 451.872C291.387 435.237 281.165 412.563 280.162 388.576C279.159 364.59 287.452 341.142 303.313 323.12C319.174 305.098 341.379 293.893 365.298 291.84C365.774 291.801 366.252 291.862 366.702 292.019C367.152 292.176 367.565 292.425 367.913 292.751C368.261 293.077 368.537 293.473 368.722 293.912C368.908 294.351 369 294.824 368.992 295.301L367.398 384.597C367.388 384.804 367.399 385.011 367.428 385.215L367.493 385.522C367.537 385.711 367.592 385.897 367.66 386.079C367.741 386.322 367.856 386.551 368.002 386.762C368.084 386.871 368.16 386.985 368.23 387.103L368.63 387.523L431.152 452.789C431.481 453.132 431.735 453.54 431.897 453.987C432.06 454.433 432.127 454.909 432.095 455.384C432.063 455.858 431.932 456.32 431.711 456.741C431.49 457.162 431.183 457.532 430.81 457.827C414.355 470.787 394.023 477.844 373.077 477.867V477.867ZM362.097 299.046C349.051 300.715 336.56 305.341 325.574 312.572C314.589 319.803 305.4 329.448 298.709 340.771C292.019 352.093 288.002 364.794 286.967 377.905C285.931 391.016 287.904 404.19 292.734 416.422C297.564 428.655 305.125 439.622 314.839 448.488C324.552 457.354 336.163 463.885 348.784 467.581C361.406 471.278 374.705 472.042 387.667 469.817C400.629 467.592 412.911 462.436 423.578 454.742L363.237 391.735C362.946 391.414 362.68 391.072 362.441 390.711C361.934 389.993 361.526 389.21 361.23 388.383C361.059 387.915 360.92 387.436 360.813 386.949L360.728 386.536C360.616 385.881 360.563 385.218 360.571 384.553L362.097 299.046Z" fill="#F58220"></path> <path d="M378.692 374.501C378.239 374.501 377.79 374.41 377.372 374.235C376.953 374.06 376.574 373.803 376.257 373.479C375.939 373.156 375.689 372.772 375.521 372.351C375.353 371.93 375.271 371.479 375.279 371.026L376.644 295.147C376.652 294.682 376.756 294.224 376.948 293.8C377.14 293.376 377.416 292.996 377.76 292.683C378.101 292.364 378.505 292.121 378.946 291.97C379.388 291.818 379.856 291.762 380.32 291.806C393.043 292.809 405.424 296.411 416.7 302.388C427.975 308.365 437.906 316.591 445.877 326.557C446.173 326.928 446.389 327.357 446.51 327.816C446.631 328.276 446.655 328.755 446.58 329.224C446.505 329.693 446.333 330.142 446.075 330.54C445.817 330.939 445.479 331.28 445.082 331.54L380.57 373.941C380.011 374.305 379.359 374.5 378.692 374.501V374.501ZM383.406 298.967L382.222 364.684L438.139 327.932C424.09 311.859 404.598 301.543 383.406 298.967V298.967Z" fill="#F58220"></path> <path d="M439.296 448.676C438.835 448.675 438.38 448.582 437.956 448.4C437.533 448.219 437.15 447.954 436.832 447.621L379.996 388.318C379.65 387.956 379.388 387.523 379.228 387.049C379.068 386.574 379.014 386.071 379.071 385.573C379.127 385.076 379.292 384.597 379.554 384.171C379.816 383.744 380.169 383.381 380.587 383.106L449.454 337.841C449.846 337.584 450.286 337.41 450.747 337.331C451.208 337.251 451.681 337.267 452.136 337.378C452.591 337.488 453.018 337.692 453.391 337.975C453.764 338.258 454.075 338.614 454.305 339.022C463.907 356.129 467.869 375.828 465.626 395.316C463.383 414.805 455.05 433.089 441.812 447.566C441.497 447.911 441.114 448.187 440.688 448.378C440.262 448.569 439.801 448.67 439.334 448.676H439.296ZM387.755 386.553L439.194 440.218C450.078 427.247 456.913 411.365 458.848 394.544C460.783 377.722 457.734 360.703 450.079 345.6L387.755 386.553Z" fill="#F58220"></path> <path d="M394.534 401.971C393.947 401.971 393.371 401.82 392.86 401.532C392.35 401.245 391.921 400.83 391.617 400.329C391.313 399.828 391.143 399.257 391.123 398.671C391.104 398.085 391.236 397.504 391.506 396.984L407.74 365.756C407.947 365.358 408.23 365.005 408.573 364.716C408.917 364.428 409.313 364.21 409.741 364.075C410.168 363.94 410.618 363.89 411.065 363.929C411.512 363.968 411.947 364.095 412.344 364.302C412.742 364.508 413.095 364.792 413.384 365.135C413.672 365.478 413.89 365.875 414.025 366.303C414.16 366.73 414.21 367.18 414.171 367.627C414.132 368.074 414.005 368.508 413.798 368.906L397.568 400.135C397.279 400.689 396.843 401.154 396.308 401.478C395.773 401.802 395.159 401.972 394.534 401.971V401.971Z" fill="#F58220"></path> <path d="M406.47 414.423C405.884 414.423 405.308 414.272 404.797 413.984C404.286 413.696 403.858 413.282 403.554 412.781C403.25 412.28 403.079 411.709 403.06 411.123C403.041 410.537 403.172 409.956 403.442 409.436L435.664 347.419C436.082 346.616 436.801 346.011 437.664 345.738C438.527 345.465 439.464 345.546 440.267 345.963C441.071 346.381 441.675 347.1 441.948 347.963C442.221 348.827 442.14 349.763 441.723 350.566L409.505 412.583C409.216 413.139 408.78 413.604 408.245 413.928C407.71 414.253 407.096 414.424 406.47 414.423V414.423Z" fill="#F58220"></path> <path d="M418.362 426.838C417.776 426.837 417.2 426.685 416.69 426.397C416.18 426.109 415.752 425.695 415.448 425.194C415.145 424.693 414.975 424.122 414.955 423.537C414.936 422.951 415.068 422.371 415.338 421.851L453.127 349.092C453.544 348.289 454.264 347.684 455.127 347.411C455.99 347.138 456.926 347.219 457.73 347.636C458.533 348.054 459.138 348.773 459.411 349.636C459.684 350.499 459.603 351.436 459.186 352.239L421.397 424.998C421.108 425.553 420.672 426.019 420.137 426.343C419.602 426.667 418.988 426.839 418.362 426.838V426.838Z" fill="#F58220"></path> <path d="M430.295 439.296C429.749 439.297 429.211 439.164 428.728 438.91C427.925 438.494 427.32 437.775 427.047 436.912C426.773 436.049 426.854 435.113 427.271 434.309L459.213 372.811C459.63 372.007 460.349 371.402 461.212 371.128C462.075 370.855 463.012 370.935 463.816 371.352C464.62 371.769 465.225 372.488 465.499 373.351C465.772 374.215 465.692 375.151 465.275 375.955L433.329 437.456C433.041 438.012 432.605 438.477 432.07 438.802C431.535 439.126 430.921 439.297 430.295 439.296V439.296Z" fill="#F58220"></path> <path d="M137.492 128.713H137.349C136.445 128.676 135.593 128.282 134.98 127.617C134.367 126.952 134.043 126.071 134.079 125.167C134.782 107.899 139.814 94.1055 149.026 84.2068C149.643 83.5437 150.497 83.1527 151.402 83.1197C152.307 83.0867 153.188 83.4145 153.851 84.031C154.514 84.6475 154.905 85.5022 154.938 86.407C154.971 87.3118 154.643 88.1927 154.027 88.8558C145.954 97.5495 141.537 109.861 140.899 125.457C140.859 126.334 140.482 127.161 139.848 127.767C139.214 128.374 138.37 128.712 137.492 128.713Z" fill="#F58220"></path> <path d="M278.828 100.451C278.154 100.45 277.494 100.249 276.933 99.8739C276.373 99.4985 275.936 98.9652 275.678 98.3416C271.471 87.9267 264.625 78.7867 255.814 71.8213C247.002 64.856 236.528 60.3053 225.423 58.6172C224.525 58.504 223.708 58.0386 223.153 57.3232C222.598 56.6079 222.349 55.7013 222.462 54.8028C222.575 53.9043 223.041 53.0876 223.756 52.5323C224.472 51.977 225.378 51.7286 226.277 51.8417C241.871 54.0904 256.261 61.5034 267.145 72.8952C273.514 79.4812 278.552 87.2348 281.982 95.7304C282.197 96.249 282.281 96.8128 282.226 97.3716C282.171 97.9304 281.979 98.467 281.667 98.9339C281.355 99.4008 280.933 99.7835 280.438 100.048C279.943 100.313 279.39 100.451 278.828 100.451V100.451Z" fill="#F58220"></path> </svg> 