<?xml version="1.0" encoding="UTF-8"?> <svg xmlns="http://www.w3.org/2000/svg" width="512" height="512" viewBox="0 0 512 512" fill="none"> <path d="M205.664 245.265H205.459C200.93 244.99 196.676 242.997 193.565 239.694C190.454 236.391 188.72 232.026 188.716 227.488C188.74 224.039 189.69 220.659 191.466 217.701C193.242 214.743 195.779 212.317 198.813 210.674C199.207 210.448 199.642 210.302 200.093 210.245C200.544 210.189 201.002 210.223 201.439 210.346C201.877 210.469 202.285 210.678 202.641 210.961C202.997 211.244 203.292 211.595 203.511 211.994C203.729 212.392 203.865 212.83 203.912 213.283C203.958 213.735 203.914 214.191 203.782 214.626C203.649 215.061 203.432 215.465 203.141 215.814C202.85 216.164 202.493 216.452 202.09 216.661C200.13 217.715 198.488 219.276 197.337 221.18C196.185 223.085 195.566 225.263 195.543 227.488C195.545 230.286 196.614 232.978 198.531 235.016C200.449 237.053 203.072 238.282 205.865 238.452C206.77 238.479 207.628 238.864 208.249 239.523C208.87 240.182 209.204 241.061 209.178 241.966C209.151 242.871 208.766 243.729 208.107 244.35C207.448 244.971 206.569 245.305 205.664 245.279V245.265Z" fill="#F58220"></path> <path d="M305.084 245.265C304.179 245.292 303.3 244.958 302.641 244.336C301.982 243.715 301.597 242.858 301.57 241.952C301.543 241.047 301.877 240.168 302.498 239.509C303.12 238.85 303.977 238.465 304.882 238.438C307.676 238.268 310.299 237.039 312.217 235.002C314.136 232.965 315.205 230.273 315.208 227.475C315.184 225.249 314.564 223.071 313.412 221.166C312.26 219.262 310.618 217.701 308.658 216.648C307.884 216.202 307.316 215.472 307.075 214.613C306.834 213.753 306.938 212.834 307.367 212.051C307.795 211.268 308.513 210.684 309.367 210.424C310.221 210.164 311.142 210.249 311.934 210.661C314.969 212.303 317.507 214.729 319.284 217.687C321.06 220.644 322.01 224.025 322.034 227.475C322.03 232.012 320.295 236.378 317.183 239.681C314.072 242.984 309.818 244.976 305.289 245.251L305.084 245.265Z" fill="#F58220"></path> <path d="M305.664 233.23C305.472 233.229 305.28 233.213 305.09 233.182C304.288 233.045 303.56 232.626 303.04 232C302.519 231.374 302.239 230.583 302.251 229.769L302.271 228.376C302.411 220.402 302.664 205.561 293.222 193.901C291.817 192.324 289.928 191.257 287.852 190.866C285.776 190.476 283.629 190.785 281.747 191.744C277.904 193.395 273.934 194.73 269.875 195.738C260.38 198.347 250.357 198.347 240.862 195.738C236.802 194.73 232.831 193.394 228.987 191.744C227.104 190.785 224.957 190.477 222.881 190.868C220.804 191.259 218.916 192.327 217.511 193.905C208.073 205.544 208.329 220.385 208.466 228.359L208.486 229.752C208.494 230.563 208.213 231.352 207.692 231.974C207.171 232.597 206.446 233.014 205.645 233.15C204.845 233.287 204.022 233.133 203.325 232.717C202.627 232.301 202.101 231.65 201.841 230.881C189.894 195.345 191.423 169.158 206.394 153.057C211.695 147.441 218.092 142.973 225.19 139.928C232.288 136.884 239.935 135.329 247.658 135.359H263.072C270.745 135.318 278.345 136.846 285.405 139.849C292.466 142.853 298.837 147.269 304.128 152.825L304.367 153.085C319.321 169.182 320.853 195.369 308.907 230.909C308.678 231.587 308.241 232.175 307.659 232.592C307.078 233.008 306.379 233.232 305.664 233.23V233.23ZM286.252 183.9C288.594 183.878 290.911 184.38 293.034 185.369C295.156 186.359 297.031 187.81 298.52 189.618C303.143 195.457 306.295 202.324 307.708 209.637C312.586 186.368 309.791 168.96 299.349 157.696C294.69 152.766 289.068 148.845 282.831 146.175C276.595 143.506 269.876 142.146 263.093 142.179H247.668C240.934 142.141 234.264 143.48 228.066 146.113C221.868 148.746 216.274 152.618 211.627 157.491C201.018 168.916 198.188 186.368 203.056 209.63C204.471 202.322 207.621 195.461 212.241 189.624C214.597 186.832 217.826 184.917 221.406 184.188C224.986 183.46 228.707 183.961 231.967 185.61C235.443 187.075 239.027 188.269 242.688 189.181C250.994 191.464 259.763 191.464 268.069 189.181C271.734 188.27 275.322 187.076 278.801 185.61C281.126 184.491 283.672 183.907 286.252 183.9V183.9Z" fill="#F58220"></path> <path d="M255.43 289.976C240.935 289.499 227.2 283.375 217.156 272.913C207.113 262.45 201.555 248.477 201.67 233.974V229.816C201.67 228.911 202.03 228.043 202.67 227.403C203.31 226.763 204.178 226.403 205.083 226.403C205.989 226.403 206.857 226.763 207.497 227.403C208.137 228.043 208.497 228.911 208.497 229.816V233.974C208.497 260.202 230.001 282.723 255.43 283.15C280.757 282.723 302.251 260.202 302.251 233.974V229.816C302.251 228.911 302.61 228.043 303.25 227.403C303.891 226.763 304.759 226.403 305.664 226.403C306.569 226.403 307.437 226.763 308.078 227.403C308.718 228.043 309.077 228.911 309.077 229.816V233.974C309.199 248.459 303.659 262.42 293.638 272.881C283.617 283.342 269.907 289.476 255.43 289.976V289.976Z" fill="#F58220"></path> <path d="M183.6 376.624C182.695 376.624 181.826 376.264 181.186 375.624C180.546 374.984 180.187 374.116 180.187 373.21V333.165C180.187 332.26 180.546 331.392 181.186 330.752C181.826 330.112 182.695 329.752 183.6 329.752C184.505 329.752 185.373 330.112 186.013 330.752C186.654 331.392 187.013 332.26 187.013 333.165V373.21C187.013 374.116 186.654 374.984 186.013 375.624C185.373 376.264 184.505 376.624 183.6 376.624Z" fill="#F58220"></path> <path d="M361.923 376.634H150.077C149.172 376.634 148.304 376.274 147.664 375.634C147.024 374.994 146.664 374.126 146.664 373.221V351.338C146.512 340.697 149.442 330.24 155.102 321.229C168.878 299.868 209.964 292.301 222.778 290.427L226.055 277.712C226.159 277.27 226.35 276.853 226.618 276.485C226.885 276.118 227.223 275.807 227.612 275.572C228.001 275.337 228.433 275.182 228.883 275.116C229.333 275.05 229.791 275.075 230.231 275.189C230.671 275.302 231.084 275.503 231.446 275.778C231.807 276.053 232.11 276.398 232.337 276.792C232.563 277.186 232.709 277.622 232.765 278.073C232.821 278.524 232.786 278.981 232.663 279.419L228.82 294.349C228.649 295.009 228.285 295.603 227.774 296.055C227.263 296.506 226.629 296.794 225.952 296.881C202.278 299.953 171.018 309.149 160.836 324.939C155.891 332.847 153.34 342.016 153.491 351.341V369.811H358.509V351.341C358.65 342.021 356.099 332.857 351.164 324.949C340.961 309.159 309.709 299.967 286.048 296.892C285.372 296.804 284.738 296.517 284.227 296.066C283.716 295.615 283.351 295.022 283.18 294.362L279.136 278.692C278.909 277.815 279.041 276.884 279.5 276.104C279.96 275.324 280.711 274.759 281.588 274.533C282.465 274.306 283.396 274.438 284.176 274.898C284.956 275.357 285.521 276.108 285.747 276.985L289.219 290.441C302.025 292.314 343.095 299.878 356.898 321.249C362.549 330.262 365.479 340.714 365.336 351.351V373.234C365.332 374.137 364.971 375.002 364.331 375.639C363.692 376.276 362.825 376.634 361.923 376.634V376.634Z" fill="#F58220"></path> <path d="M328.39 376.624C327.485 376.624 326.616 376.264 325.976 375.624C325.336 374.984 324.977 374.116 324.977 373.21V333.165C324.977 332.26 325.336 331.392 325.976 330.752C326.616 330.112 327.485 329.752 328.39 329.752C329.295 329.752 330.163 330.112 330.803 330.752C331.444 331.392 331.803 332.26 331.803 333.165V373.21C331.803 374.116 331.444 374.984 330.803 375.624C330.163 376.264 329.295 376.624 328.39 376.624Z" fill="#F58220"></path> <path d="M256.085 317.099H256C237.247 317.099 220.003 309.589 210.999 297.462C210.473 296.734 210.255 295.829 210.392 294.943C210.528 294.056 211.009 293.258 211.729 292.723C212.449 292.188 213.351 291.958 214.24 292.082C215.128 292.207 215.932 292.677 216.477 293.39C224.215 303.787 239.36 310.272 256 310.272C272.589 310.272 287.768 303.828 295.502 293.393C295.765 293.021 296.099 292.705 296.485 292.464C296.871 292.223 297.301 292.062 297.751 291.99C298.2 291.918 298.659 291.936 299.101 292.044C299.543 292.152 299.96 292.347 300.325 292.618C300.691 292.89 300.998 293.231 301.23 293.623C301.462 294.014 301.613 294.449 301.674 294.9C301.735 295.35 301.706 295.809 301.588 296.249C301.469 296.688 301.264 297.099 300.984 297.458C292 309.569 274.804 317.099 256.085 317.099V317.099Z" fill="#F58220"></path> <path d="M81.647 252.338H81.4422C77.6681 252.107 74.1237 250.447 71.5311 247.695C68.9385 244.942 67.4928 241.305 67.4885 237.524C67.5114 234.661 68.3011 231.857 69.7755 229.404C71.2498 226.95 73.355 224.937 75.8717 223.573C76.6661 223.139 77.6005 223.038 78.4695 223.292C79.3384 223.547 80.0707 224.136 80.5053 224.93C80.9398 225.725 81.041 226.659 80.7865 227.528C80.5321 228.397 79.9428 229.129 79.1485 229.564C77.7033 230.339 76.4926 231.488 75.6425 232.89C74.7924 234.293 74.334 235.897 74.3152 237.537C74.3175 239.579 75.098 241.542 76.4977 243.028C77.8973 244.514 79.8109 245.411 81.8484 245.535C82.7537 245.561 83.6113 245.947 84.2325 246.606C84.8538 247.265 85.1878 248.144 85.1611 249.049C85.1344 249.954 84.7491 250.812 84.0901 251.433C83.4311 252.054 82.5523 252.388 81.647 252.361V252.338Z" fill="#F58220"></path> <path d="M160.553 252.338C159.648 252.364 158.769 252.03 158.11 251.409C157.451 250.788 157.066 249.93 157.039 249.025C157.012 248.12 157.346 247.241 157.967 246.582C158.589 245.923 159.446 245.538 160.351 245.511C162.389 245.387 164.302 244.49 165.701 243.004C167.1 241.518 167.88 239.554 167.881 237.513C167.862 235.874 167.404 234.27 166.555 232.867C165.706 231.465 164.496 230.316 163.051 229.54C162.658 229.325 162.311 229.034 162.03 228.685C161.749 228.336 161.539 227.934 161.413 227.504C161.287 227.074 161.247 226.623 161.296 226.177C161.344 225.731 161.479 225.3 161.695 224.906C161.91 224.513 162.2 224.166 162.55 223.885C162.899 223.604 163.3 223.394 163.73 223.268C164.161 223.142 164.612 223.102 165.057 223.15C165.503 223.199 165.935 223.334 166.328 223.549C168.847 224.914 170.952 226.93 172.426 229.386C173.9 231.842 174.688 234.649 174.708 237.513C174.705 241.294 173.26 244.932 170.668 247.684C168.076 250.436 164.532 252.097 160.758 252.327L160.553 252.338Z" fill="#F58220"></path> <path d="M161.014 242.787C160.817 242.789 160.621 242.773 160.427 242.739C159.623 242.603 158.895 242.184 158.374 241.558C157.852 240.932 157.572 240.141 157.583 239.326L157.604 238.22C157.71 231.98 157.911 220.365 150.579 211.326C149.564 210.196 148.204 209.434 146.71 209.159C145.216 208.884 143.673 209.112 142.322 209.807C139.228 211.134 136.032 212.208 132.765 213.019C125.111 215.122 117.031 215.122 109.377 213.019C106.115 212.207 102.925 211.133 99.8365 209.807C98.4851 209.112 96.9414 208.885 95.4469 209.16C93.9523 209.436 92.5912 210.199 91.5763 211.33C84.2478 220.368 84.4492 231.984 84.555 238.223V239.326C84.5656 240.14 84.2851 240.93 83.7642 241.555C83.2432 242.181 82.516 242.599 81.7138 242.735C80.9115 242.872 80.087 242.717 79.3888 242.299C78.6906 241.881 78.1647 241.227 77.9059 240.456C68.3485 211.989 69.6046 190.962 81.6605 177.971C85.9335 173.443 91.0904 169.841 96.8119 167.387C102.533 164.933 108.698 163.679 114.923 163.704H127.16C133.343 163.671 139.467 164.903 145.156 167.324C150.846 169.746 155.979 173.305 160.242 177.784C172.493 190.966 173.759 211.989 164.188 240.456C163.965 241.125 163.54 241.708 162.971 242.125C162.403 242.543 161.719 242.774 161.014 242.787V242.787ZM145.606 202.226C147.569 202.21 149.512 202.632 151.291 203.463C153.07 204.293 154.642 205.51 155.89 207.026C158.973 210.88 161.241 215.321 162.557 220.078C165.499 203.424 163.137 190.87 155.477 182.627C151.845 178.785 147.463 175.73 142.602 173.65C137.741 171.571 132.505 170.511 127.218 170.537H114.982C109.732 170.504 104.532 171.544 99.6992 173.594C94.8666 175.643 90.5041 178.659 86.8795 182.456C79.1039 190.826 76.7112 203.414 79.6433 220.071C80.9572 215.318 83.2241 210.882 86.3061 207.032C88.2762 204.694 90.9775 203.089 93.973 202.476C96.9685 201.864 100.083 202.28 102.813 203.657C105.537 204.8 108.346 205.731 111.213 206.442C117.684 208.224 124.516 208.224 130.987 206.442C133.854 205.732 136.663 204.801 139.387 203.657C141.327 202.721 143.452 202.232 145.606 202.226V202.226Z" fill="#F58220"></path> <path d="M121.156 287.826C109.466 287.448 98.3862 282.516 90.2811 274.083C82.176 265.65 77.6873 254.384 77.7727 242.688V239.391C77.7727 238.485 78.1323 237.617 78.7724 236.977C79.4125 236.337 80.2807 235.977 81.186 235.977C82.0913 235.977 82.9595 236.337 83.5996 236.977C84.2397 237.617 84.5993 238.485 84.5993 239.391V242.688C84.6131 252.546 88.4152 262.023 95.2194 269.156C102.024 276.29 111.309 280.536 121.156 281.016C140.858 280.675 157.597 263.13 157.597 242.688V239.391C157.597 238.485 157.957 237.617 158.597 236.977C159.237 236.337 160.105 235.977 161.01 235.977C161.916 235.977 162.784 236.337 163.424 236.977C164.064 237.617 164.424 238.485 164.424 239.391V242.688C164.515 254.366 160.044 265.619 151.963 274.049C143.881 282.48 132.828 287.423 121.156 287.826V287.826Z" fill="#F58220"></path> <path d="M64.1365 356.594C63.2312 356.594 62.363 356.235 61.7229 355.595C61.0828 354.954 60.7231 354.086 60.7231 353.181V321.396C60.7231 320.491 61.0828 319.623 61.7229 318.982C62.363 318.342 63.2312 317.983 64.1365 317.983C65.0418 317.983 65.9099 318.342 66.5501 318.982C67.1902 319.623 67.5498 320.491 67.5498 321.396V353.181C67.5498 354.086 67.1902 354.954 66.5501 355.595C65.9099 356.235 65.0418 356.594 64.1365 356.594Z" fill="#F58220"></path> <path d="M150.084 356.605H37.5466C36.6413 356.605 35.7731 356.245 35.133 355.605C34.4929 354.965 34.1333 354.097 34.1333 353.191V335.834C34.0134 327.253 36.3681 318.82 40.9156 311.542C51.8758 294.574 83.9236 288.444 94.6551 286.836L97.1502 277.193C97.2542 276.751 97.4456 276.334 97.713 275.966C97.9805 275.599 98.3186 275.288 98.7076 275.053C99.0966 274.818 99.5286 274.663 99.9784 274.597C100.428 274.531 100.886 274.556 101.326 274.67C101.767 274.783 102.18 274.984 102.541 275.259C102.903 275.535 103.206 275.879 103.432 276.273C103.659 276.667 103.804 277.103 103.86 277.554C103.916 278.005 103.882 278.463 103.758 278.9L100.686 290.751C100.516 291.411 100.151 292.004 99.6402 292.455C99.1292 292.906 98.495 293.193 97.8192 293.28C79.1893 295.7 54.6133 302.899 46.65 315.242C42.8172 321.418 40.842 328.567 40.9599 335.834V349.778H150.084C150.989 349.778 151.858 350.138 152.498 350.778C153.138 351.418 153.498 352.286 153.498 353.191C153.498 354.097 153.138 354.965 152.498 355.605C151.858 356.245 150.989 356.605 150.084 356.605V356.605Z" fill="#F58220"></path> <path d="M187.549 306.176C186.936 306.177 186.334 306.011 185.808 305.695C171.585 297.233 151.248 294.059 145.353 293.287C144.679 293.198 144.045 292.91 143.536 292.459C143.026 292.007 142.663 291.414 142.493 290.755L139.288 278.347C139.165 277.91 139.13 277.452 139.186 277.001C139.242 276.55 139.388 276.114 139.614 275.72C139.841 275.326 140.144 274.982 140.505 274.706C140.867 274.431 141.28 274.23 141.72 274.117C142.16 274.003 142.618 273.978 143.068 274.044C143.518 274.11 143.95 274.265 144.339 274.5C144.728 274.735 145.066 275.046 145.333 275.413C145.601 275.781 145.792 276.198 145.896 276.64L148.531 286.839C156.679 288.061 175.48 291.618 189.297 299.831C189.939 300.213 190.437 300.796 190.716 301.489C190.995 302.183 191.038 302.948 190.84 303.669C190.642 304.389 190.212 305.025 189.618 305.478C189.023 305.931 188.296 306.176 187.549 306.176V306.176Z" fill="#F58220"></path> <path d="M121.665 309.343H121.593C106.493 309.343 92.5799 303.261 85.3129 293.475C85.0453 293.115 84.8512 292.706 84.7418 292.271C84.6323 291.836 84.6095 291.384 84.6748 290.94C84.7401 290.496 84.8922 290.07 85.1223 289.685C85.3524 289.3 85.6561 288.964 86.0161 288.696C86.376 288.429 86.7851 288.235 87.2201 288.125C87.655 288.016 88.1073 287.993 88.551 288.058C88.9948 288.123 89.4213 288.275 89.8063 288.506C90.1913 288.736 90.5271 289.039 90.7947 289.399C96.809 297.492 108.612 302.517 121.6 302.517H121.665C134.636 302.517 146.388 297.496 152.385 289.406C152.931 288.698 153.732 288.232 154.618 288.109C155.503 287.985 156.402 288.214 157.12 288.746C157.839 289.278 158.32 290.071 158.46 290.954C158.6 291.837 158.388 292.74 157.87 293.468C150.607 303.264 136.738 309.343 121.665 309.343Z" fill="#F58220"></path> <path d="M430.353 252.338C429.448 252.364 428.569 252.03 427.91 251.409C427.251 250.788 426.866 249.93 426.839 249.025C426.812 248.12 427.146 247.241 427.768 246.582C428.389 245.923 429.247 245.538 430.152 245.511C432.189 245.387 434.103 244.49 435.503 243.004C436.902 241.518 437.683 239.555 437.685 237.513C437.666 235.874 437.208 234.269 436.358 232.866C435.508 231.464 434.297 230.315 432.852 229.54C432.458 229.325 432.111 229.034 431.83 228.685C431.549 228.336 431.34 227.934 431.214 227.504C431.088 227.074 431.048 226.623 431.096 226.177C431.144 225.731 431.28 225.3 431.495 224.906C431.71 224.513 432.001 224.166 432.35 223.885C432.699 223.604 433.1 223.394 433.531 223.268C433.961 223.142 434.412 223.102 434.858 223.15C435.303 223.199 435.735 223.334 436.129 223.549C438.647 224.914 440.754 226.93 442.228 229.386C443.703 231.842 444.491 234.649 444.512 237.513C444.507 241.295 443.062 244.932 440.469 247.684C437.877 250.437 434.332 252.097 430.558 252.327L430.353 252.338Z" fill="#F58220"></path> <path d="M351.447 252.338H351.242C347.468 252.107 343.924 250.447 341.332 247.694C338.74 244.942 337.295 241.304 337.292 237.524C337.312 234.659 338.1 231.853 339.574 229.397C341.047 226.94 343.153 224.925 345.672 223.56C346.065 223.345 346.497 223.209 346.943 223.161C347.388 223.112 347.839 223.152 348.27 223.278C348.7 223.404 349.101 223.614 349.45 223.895C349.8 224.176 350.09 224.523 350.305 224.917C350.52 225.31 350.656 225.742 350.704 226.187C350.753 226.633 350.713 227.084 350.587 227.514C350.461 227.945 350.251 228.346 349.97 228.695C349.689 229.044 349.342 229.335 348.949 229.55C347.504 230.326 346.294 231.475 345.445 232.877C344.596 234.28 344.138 235.884 344.119 237.524C344.12 239.565 344.9 241.528 346.299 243.014C347.698 244.5 349.611 245.397 351.648 245.521C352.554 245.548 353.411 245.933 354.033 246.592C354.654 247.251 354.988 248.13 354.961 249.035C354.934 249.94 354.549 250.798 353.89 251.419C353.231 252.04 352.352 252.374 351.447 252.348V252.338Z" fill="#F58220"></path> <path d="M430.814 242.787C430.622 242.788 430.43 242.772 430.24 242.739C429.438 242.603 428.71 242.183 428.19 241.557C427.669 240.932 427.389 240.14 427.401 239.326V238.223C427.506 231.984 427.708 220.368 420.376 211.326C419.361 210.196 418 209.434 416.506 209.159C415.013 208.884 413.47 209.112 412.119 209.807C409.025 211.134 405.829 212.208 402.562 213.019C394.906 215.122 386.826 215.122 379.17 213.019C375.903 212.208 372.707 211.134 369.613 209.807C368.261 209.111 366.717 208.883 365.222 209.159C363.727 209.435 362.366 210.2 361.353 211.333C354.024 220.365 354.226 231.98 354.331 238.22L354.352 239.326C354.363 240.141 354.083 240.932 353.561 241.558C353.04 242.184 352.312 242.603 351.509 242.739C350.706 242.881 349.88 242.729 349.181 242.311C348.482 241.893 347.957 241.236 347.703 240.463C338.145 211.995 339.398 190.969 351.457 177.978C355.731 173.451 360.887 169.848 366.609 167.394C372.33 164.94 378.495 163.686 384.72 163.71H396.957C403.14 163.678 409.265 164.91 414.955 167.331C420.645 169.752 425.779 173.312 430.042 177.79C442.29 190.973 443.556 211.995 433.988 240.463C433.764 241.13 433.338 241.712 432.77 242.128C432.201 242.544 431.518 242.774 430.814 242.787V242.787ZM415.403 202.226C417.366 202.209 419.308 202.632 421.087 203.463C422.866 204.294 424.437 205.512 425.684 207.029C428.767 210.882 431.035 215.322 432.35 220.078C435.292 203.424 432.93 190.87 425.274 182.627C421.641 178.785 417.258 175.73 412.397 173.65C407.536 171.571 402.299 170.511 397.012 170.537H384.775C379.526 170.504 374.326 171.544 369.494 173.594C364.662 175.643 360.3 178.659 356.676 182.456C348.897 190.826 346.508 203.411 349.44 220.068C350.754 215.317 353.02 210.882 356.099 207.032C358.07 204.694 360.771 203.089 363.766 202.476C366.762 201.864 369.876 202.28 372.606 203.657C375.33 204.801 378.139 205.732 381.007 206.442C387.477 208.224 394.309 208.224 400.78 206.442C403.647 205.731 406.456 204.8 409.18 203.657C411.121 202.721 413.248 202.232 415.403 202.226V202.226Z" fill="#F58220"></path> <path d="M390.956 287.826C379.267 287.448 368.187 282.516 360.083 274.083C351.978 265.65 347.49 254.384 347.576 242.688V239.391C347.576 238.485 347.936 237.617 348.576 236.977C349.216 236.337 350.084 235.977 350.99 235.977C351.895 235.977 352.763 236.337 353.403 236.977C354.043 237.617 354.403 238.485 354.403 239.391V242.688C354.417 252.546 358.218 262.021 365.022 269.155C371.825 276.289 381.11 280.536 390.956 281.016C410.658 280.675 427.401 263.13 427.401 242.688V239.391C427.401 238.485 427.76 237.617 428.4 236.977C429.041 236.337 429.909 235.977 430.814 235.977C431.719 235.977 432.587 236.337 433.228 236.977C433.868 237.617 434.227 238.485 434.227 239.391V242.688C434.319 254.367 429.847 265.62 421.765 274.051C413.683 282.482 402.629 287.424 390.956 287.826V287.826Z" fill="#F58220"></path> <path d="M447.864 356.594C446.958 356.594 446.09 356.235 445.45 355.595C444.81 354.954 444.45 354.086 444.45 353.181V321.396C444.45 320.491 444.81 319.623 445.45 318.982C446.09 318.342 446.958 317.983 447.864 317.983C448.769 317.983 449.637 318.342 450.277 318.982C450.917 319.623 451.277 320.491 451.277 321.396V353.181C451.277 354.086 450.917 354.954 450.277 355.595C449.637 356.235 448.769 356.594 447.864 356.594Z" fill="#F58220"></path> <path d="M474.453 356.605H361.916C361.011 356.605 360.142 356.245 359.502 355.605C358.862 354.965 358.502 354.097 358.502 353.191C358.502 352.286 358.862 351.418 359.502 350.778C360.142 350.138 361.011 349.778 361.916 349.778H471.04V335.834C471.158 328.565 469.181 321.415 465.347 315.238C457.387 302.899 432.811 295.7 414.174 293.284C413.498 293.197 412.864 292.909 412.353 292.458C411.842 292.008 411.478 291.414 411.307 290.755L408.235 278.903C408.111 278.466 408.077 278.008 408.133 277.557C408.189 277.106 408.334 276.671 408.561 276.277C408.788 275.883 409.09 275.538 409.452 275.263C409.814 274.987 410.227 274.787 410.667 274.673C411.107 274.559 411.565 274.535 412.015 274.601C412.465 274.667 412.897 274.822 413.286 275.057C413.675 275.292 414.013 275.602 414.28 275.97C414.548 276.337 414.739 276.754 414.843 277.197L417.338 286.839C428.066 288.447 460.117 294.578 471.074 311.542C475.626 318.818 477.984 327.252 477.867 335.834V353.191C477.867 354.097 477.507 354.965 476.867 355.605C476.227 356.245 475.359 356.605 474.453 356.605V356.605Z" fill="#F58220"></path> <path d="M324.451 306.176C323.704 306.176 322.977 305.931 322.382 305.478C321.788 305.025 321.359 304.389 321.16 303.669C320.962 302.948 321.005 302.183 321.284 301.489C321.563 300.796 322.061 300.213 322.703 299.831C336.521 291.608 355.321 288.061 363.469 286.839L366.104 276.64C366.208 276.198 366.399 275.781 366.667 275.413C366.934 275.046 367.272 274.735 367.661 274.5C368.05 274.265 368.482 274.11 368.932 274.044C369.382 273.978 369.84 274.003 370.28 274.117C370.72 274.23 371.133 274.431 371.495 274.706C371.856 274.982 372.159 275.326 372.386 275.72C372.612 276.114 372.758 276.55 372.814 277.001C372.87 277.452 372.835 277.91 372.712 278.347L369.507 290.755C369.337 291.414 368.974 292.007 368.464 292.459C367.955 292.91 367.322 293.198 366.647 293.287C360.752 294.059 340.415 297.233 326.192 305.695C325.666 306.011 325.064 306.177 324.451 306.176V306.176Z" fill="#F58220"></path> <path d="M390.332 309.344C375.258 309.344 361.393 303.264 354.133 293.468C353.615 292.74 353.403 291.837 353.543 290.954C353.684 290.071 354.165 289.278 354.883 288.746C355.602 288.214 356.5 287.985 357.386 288.109C358.271 288.232 359.073 288.698 359.618 289.406C365.616 297.496 377.368 302.517 390.338 302.517H390.403C403.394 302.517 415.198 297.493 421.212 289.399C421.48 289.04 421.816 288.736 422.2 288.506C422.585 288.276 423.012 288.125 423.455 288.059C423.899 287.994 424.351 288.017 424.786 288.127C425.22 288.236 425.629 288.43 425.989 288.698C426.349 288.966 426.652 289.301 426.882 289.686C427.112 290.071 427.264 290.498 427.329 290.941C427.394 291.385 427.371 291.837 427.262 292.272C427.152 292.706 426.958 293.115 426.69 293.475C419.417 303.261 405.528 309.344 390.407 309.344H390.332Z" fill="#F58220"></path> </svg> 